<svg xmlns="http://www.w3.org/2000/svg" width="21.517" height="26.425" viewBox="0 0 21.517 26.425">
  <path id="Path_152" data-name="Path 152" d="M16.674,5.719A5.81,5.81,0,0,0,18.05,1.5a5.913,5.913,0,0,0-3.894,2,5.534,5.534,0,0,0-1.4,4.088,4.9,4.9,0,0,0,3.919-1.868m6.874,15.163a14.569,14.569,0,0,1-1.83,3.758c-1.1,1.61-2.245,3.215-4.046,3.249-1.768.034-2.339-1.051-4.36-1.051s-2.657,1.017-4.33,1.085c-1.738.063-3.063-1.742-4.173-3.347-2.27-3.28-4-9.272-1.674-13.311A6.462,6.462,0,0,1,8.6,7.95C10.312,7.918,11.921,9.1,12.965,9.1s3-1.419,5.057-1.211a6.173,6.173,0,0,1,4.834,2.62A5.977,5.977,0,0,0,20,15.536a5.837,5.837,0,0,0,3.548,5.345" transform="translate(-2.032 -1.499)" fill="#040505"/>
</svg>
