<svg xmlns="http://www.w3.org/2000/svg" xmlns:xlink="http://www.w3.org/1999/xlink" width="509" height="292" viewBox="0 0 509 292">
  <defs>
    <clipPath id="clip-path">
      <rect id="Rectangle_190" data-name="Rectangle 190" width="509" height="292" transform="translate(1206 788)" fill="#fff"/>
    </clipPath>
  </defs>
  <g id="Mask_Group_1" data-name="Mask Group 1" transform="translate(-1206 -788)" clip-path="url(#clip-path)">
    <g id="Group_2844" data-name="Group 2844">
      <g id="Group_17" data-name="Group 17" transform="translate(1263.774 911.92)">
        <ellipse id="Ellipse_15" data-name="Ellipse 15" cx="69.14" cy="69.14" rx="69.14" ry="69.14" transform="translate(201.494 72.146)" fill="#fe5d67"/>
        <path id="Path_72" data-name="Path 72" d="M66.422,0a66.422,66.422,0,0,1,66.422,66.422V189.171a21.255,21.255,0,0,1-21.255,21.255H21.255A21.255,21.255,0,0,1,0,189.171V66.422A66.422,66.422,0,0,1,66.422,0Z" transform="translate(113.738 0)" fill="#9f4dff"/>
        <path id="Path_61" data-name="Path 61" d="M1007.114,487.565,959.722,569.65C943.464,597.8,963.785,633,996.3,633h94.783c32.511,0,52.831-35.2,36.575-63.351l-47.391-82.085C1064.01,459.408,1023.368,459.408,1007.114,487.565Z" transform="translate(-954 -422.574)" fill="#ffca2f"/>
        <g id="Group_9" data-name="Group 9" transform="translate(276.299 115.502)">
          <path id="Path_62" data-name="Path 62" d="M1055.718,511.269a19.729,19.729,0,0,0,33.642-13.991,19.162,19.162,0,0,0-.1-2,2.991,2.991,0,1,0-5.952.6c.046.466.07.931.07,1.395a13.741,13.741,0,0,1-23.437,9.746,2.993,2.993,0,1,0-4.221,4.245Z" transform="translate(-1054.835 -492.589)"/>
        </g>
        <ellipse id="Ellipse_16" data-name="Ellipse 16" cx="8.385" cy="8.385" rx="8.385" ry="8.385" transform="translate(290.959 91.62)"/>
        <ellipse id="Ellipse_17" data-name="Ellipse 17" cx="8.385" cy="8.385" rx="8.385" ry="8.385" transform="translate(262.475 104.34)"/>
        <ellipse id="Ellipse_18" data-name="Ellipse 18" cx="8.033" cy="8.033" rx="8.033" ry="8.033" transform="translate(70.479 88.21)"/>
        <ellipse id="Ellipse_19" data-name="Ellipse 19" cx="8.033" cy="8.033" rx="8.033" ry="8.033" transform="translate(47.721 84.678)"/>
        <g id="Group_10" data-name="Group 10" transform="translate(42.327 109.991)">
          <path id="Path_63" data-name="Path 63" d="M997.417,526.075a28.167,28.167,0,0,1-5.311-.507h0a27.938,27.938,0,0,1-22.157-32.662,2.862,2.862,0,0,1,3.353-2.278l49.193,9.423a2.867,2.867,0,0,1,2.273,3.354,27.923,27.923,0,0,1-27.352,22.668Zm-22.2-29.239a22.209,22.209,0,0,0,17.964,23.1h0a22.183,22.183,0,0,0,25.23-14.826Z" transform="translate(-969.447 -490.577)"/>
        </g>
        <path id="Path_64" data-name="Path 64" d="M1040.626,504.927a32.871,32.871,0,0,0,32.87-32.87h-65.742A32.871,32.871,0,0,0,1040.626,504.927Z" transform="translate(-860.463 -412.813)"/>
        <ellipse id="Ellipse_20" data-name="Ellipse 20" cx="9.186" cy="9.186" rx="9.186" ry="9.186" transform="translate(185.548 26.038)"/>
        <ellipse id="Ellipse_21" data-name="Ellipse 21" cx="9.186" cy="9.186" rx="9.186" ry="9.186" transform="translate(154.343 26.038)"/>
        <path id="Path_65" data-name="Path 65" d="M1055.427,564.229l-47.391-82.084A42.264,42.264,0,0,0,997,469.562a66.761,66.761,0,0,0-1.494,14.015V606.325a21.256,21.256,0,0,0,21.255,21.255h2.088C1051.363,627.58,1071.684,592.384,1055.427,564.229Z" transform="translate(-881.77 -417.154)" fill="#ff29e6"/>
        <path id="Path_67" data-name="Path 67" d="M1027.535,543.164a69.142,69.142,0,0,0,39.335,62.4,21.161,21.161,0,0,0,5.757-14.514V478.331A69.153,69.153,0,0,0,1027.535,543.164Z" transform="translate(-826.042 -401.895)" fill="#00d0ff"/>
      </g>
      <g id="Group_86" data-name="Group 86" transform="translate(1217.206 864.786)">
        <path id="Path_75" data-name="Path 75" d="M213.117,776.732c-30.416,3.8-55.275,28.038-50.252,56.5,5.48,31.059,29.313,41.74,52.228,41.774,3.175,5.485,8.7,12.328,17.99,13.261,2.988.3,5.094.361,2.528-4.281a26.061,26.061,0,0,1-3.68-10.824,67.776,67.776,0,0,0,14.917-5.106c17.664-8.632,30.4-27.864,25.974-49.817C267.906,793.86,241.735,773.156,213.117,776.732Z" transform="translate(-162.165 -773.682)" fill="#67d8eb"/>
        <path id="Path_76" data-name="Path 76" d="M289.792,830.214c-16.205-3.585-37.309,1.79-50.322,12.869-8.176,6.962-18.432,25.525-5.8,39.565,7.291,8.106,20.884,7.771,31.011,6.176,17.227-2.715,59.492-20.367,44.482-46.3C305.971,837.015,299.81,832.429,289.792,830.214Z" transform="translate(-218.709 -819.231)" fill="#71f2ff"/>
        <path id="Path_77" data-name="Path 77" d="M232.41,1135.208c-1.433.324-3.367.381-3.556,2.014-.345,2.995,2.863,10.841.528,10.174-4.483-1.28-7.622-4.657-10.079-8.463-1.942-3.009-4.212-1.443-8.991-1.964-24.856-2.715-48.1-18.924-47.407-53.2a41.316,41.316,0,0,0-.049,14.773c5.48,31.058,29.313,41.74,52.228,41.774,3.176,5.485,8.7,12.328,17.99,13.261,2.988.3,5.094.361,2.528-4.281a26.059,26.059,0,0,1-3.68-10.824,67.782,67.782,0,0,0,14.917-5.106,49.268,49.268,0,0,0,21.13-19.674C258.213,1128.4,241.513,1133.152,232.41,1135.208Z" transform="translate(-162.163 -1038.993)" fill="#65b3bc"/>
        <g id="Group_20" data-name="Group 20" transform="translate(70.85)">
          <path id="Path_78" data-name="Path 78" d="M678.95,757.459c11.2,2.082,20.474,8.121,28.488,16.026a.2.2,0,0,0,.317-.244c-4.4-9.52-18.432-17.136-28.758-16.13-.185.018-.259.309-.047.348Z" transform="translate(-678.822 -757.021)" fill="#fff"/>
        </g>
        <g id="Group_21" data-name="Group 21" transform="translate(100.892 17.992)">
          <path id="Path_79" data-name="Path 79" d="M898.033,888.46a2.87,2.87,0,0,0,.667,1.731c.416.562.787,1.314,1.575,1.33a.184.184,0,0,0,.164-.094c.31-.726-.2-1.291-.633-1.84a3.722,3.722,0,0,0-1.579-1.274.154.154,0,0,0-.194.148Z" transform="translate(-898.033 -888.304)" fill="#fff"/>
        </g>
        <g id="Group_22" data-name="Group 22" transform="translate(4.362 81.289)">
          <path id="Path_80" data-name="Path 80" d="M193.674,1350.3a25.445,25.445,0,0,0,6.984,11.143c3.093,3.058,7.945,6.59,12.492,6.091a.228.228,0,0,0,.114-.422c-3.9-2.425-7.89-3.693-11.409-6.866a49.683,49.683,0,0,1-8-10.021.1.1,0,0,0-.179.076Z" transform="translate(-193.67 -1350.177)" fill="#fff"/>
        </g>
        <g id="Group_23" data-name="Group 23" transform="translate(0 7.355)">
          <path id="Path_81" data-name="Path 81" d="M162.136,837.049c3.094-5.17,5.724-10.292,9.874-14.753,4.343-4.668,9.98-7.727,15.259-11.176a.234.234,0,0,0-.179-.425c-11.709,1.713-24.537,14.186-25.25,26.273a.16.16,0,0,0,.3.08Z" transform="translate(-161.84 -810.692)" fill="#fff"/>
        </g>
        <g id="Group_24" data-name="Group 24" transform="translate(90.264 72.71)">
          <path id="Path_82" data-name="Path 82" d="M820.678,1310.705c9.854-2.134,21.162-12.531,22.046-22.888.022-.259-.346-.329-.467-.127a75.107,75.107,0,0,1-8.615,12.413c-3.8,4.144-8.5,7.147-13.082,10.322a.154.154,0,0,0,.118.28Z" transform="translate(-820.488 -1287.574)" fill="#fff"/>
        </g>
        <g id="Group_25" data-name="Group 25" transform="translate(83.51 96.489)">
          <path id="Path_83" data-name="Path 83" d="M771.325,1463.046a3.309,3.309,0,0,0,2.857.146,3.535,3.535,0,0,0,2.319-1.831.184.184,0,0,0-.158-.276c-.394.031-.786.008-1.178.051a5.994,5.994,0,0,0-1.409.509,9,9,0,0,0-2.48,1.016c-.135.1-.064.3.05.384Z" transform="translate(-771.202 -1461.085)" fill="#fff"/>
        </g>
        <g id="Group_54" data-name="Group 54" transform="translate(13.815 39.925) rotate(-16)">
          <path id="Path_110" data-name="Path 110" d="M.775,21.287A3.731,3.731,0,0,1,0,18.713a26.072,26.072,0,0,1,.471-3.848q.47-2.712,1.384-7.391l.609-3.239L.913,2.021A12.188,12.188,0,0,1,3.516.554,6.82,6.82,0,0,1,6.09,0,2.812,2.812,0,0,1,7.917.457a1.906,1.906,0,0,1,.526,1.509A9.466,9.466,0,0,1,8.235,3.7q-.208,1.066-.65,2.893Q7,9.079,6.727,10.353L7,10.491a12.873,12.873,0,0,1,3.668-4.236,7.27,7.27,0,0,1,4.194-1.411,3.463,3.463,0,0,1,2.519.817,3.418,3.418,0,0,1,.83,2.533,10.6,10.6,0,0,1-.194,1.965q-.194,1.024-.581,2.74-.443,1.855-.65,3.031a13.429,13.429,0,0,0-.208,2.339,4.336,4.336,0,0,0,.581,2.519,4.471,4.471,0,0,1-3.045,1.356,3.168,3.168,0,0,1-2.464-.858,3.731,3.731,0,0,1-.775-2.574,11.336,11.336,0,0,1,.249-2.325q.249-1.19.72-2.713.359-1.273.526-2.007a6.025,6.025,0,0,0,.166-1.315q0-1.163-.941-1.163a4.092,4.092,0,0,0-2.464,1.2,9.93,9.93,0,0,0-2.422,3.294A10.383,10.383,0,0,0,5.7,18.27a4.335,4.335,0,0,0,.581,2.519,4.471,4.471,0,0,1-3.045,1.356A3.168,3.168,0,0,1,.775,21.287Z" transform="translate(0.581 0)" fill="#0a405b"/>
          <path id="Path_111" data-name="Path 111" d="M14.948,7.322a8.213,8.213,0,0,1-3.723,2.131,19.93,19.93,0,0,1-5.744.734v.249a5.651,5.651,0,0,0,.651,2.948A2.023,2.023,0,0,0,7.945,14.45a2.96,2.96,0,0,0,2.325-1.038,4.2,4.2,0,0,0,.969-2.727,4.407,4.407,0,0,1,2.533.609,2.025,2.025,0,0,1,.872,1.772,2.964,2.964,0,0,1-.969,2.131,6.721,6.721,0,0,1-2.644,1.536,11.468,11.468,0,0,1-3.7.568,7.556,7.556,0,0,1-5.4-1.827A6.661,6.661,0,0,1,0,10.38,10.2,10.2,0,0,1,1.412,5.052a9.942,9.942,0,0,1,3.9-3.709A11.6,11.6,0,0,1,10.907,0a6.451,6.451,0,0,1,3.945,1.052,3.492,3.492,0,0,1,1.4,2.962A4.693,4.693,0,0,1,14.948,7.322Zm-7.516-2.7A8.209,8.209,0,0,0,5.758,8.111,9.592,9.592,0,0,0,9.979,6.976,2.723,2.723,0,0,0,11.46,4.595a1.259,1.259,0,0,0-.415-.983,1.552,1.552,0,0,0-1.08-.374A3.342,3.342,0,0,0,7.433,4.623Z" transform="translate(21.232 4.844)" fill="#0a405b"/>
          <path id="Path_112" data-name="Path 112" d="M20.844,2.436A21,21,0,0,1,18.8,10.464a24.768,24.768,0,0,1-5.7,8.208,11.7,11.7,0,0,1-8.277,3.474,6.413,6.413,0,0,1-3.585-.831A2.725,2.725,0,0,1,0,18.906a3.1,3.1,0,0,1,.415-1.522,3.478,3.478,0,0,1,.941-1.135,3.679,3.679,0,0,0,1.329,1.273,4.307,4.307,0,0,0,2.187.5,6.27,6.27,0,0,0,3.1-.913,3.687,3.687,0,0,1-2.367-1.7,7.177,7.177,0,0,1-.941-2.893,38.589,38.589,0,0,1-.18-4.152q-.028-1.993-.1-3.184a9.579,9.579,0,0,0-.4-2.27A3.671,3.671,0,0,0,2.934,1.19,5.1,5.1,0,0,1,6.228,0,3.082,3.082,0,0,1,8.651.913,4.724,4.724,0,0,1,9.73,3.266,20.165,20.165,0,0,1,9.993,6.81L9.965,9.688a17.577,17.577,0,0,0,.221,3.087,3.149,3.149,0,0,0,.886,1.813,16.574,16.574,0,0,0,3-5.121A18.616,18.616,0,0,0,15.225,2.8a9.78,9.78,0,0,0-.139-1.605A4.228,4.228,0,0,1,16.512.332,4.634,4.634,0,0,1,18.159,0Q20.844,0,20.844,2.436Z" transform="translate(36.567 4.844)" fill="#0a405b"/>
          <g id="Group_53" data-name="Group 53" transform="translate(0 25.275)">
            <path id="Path_113" data-name="Path 113" d="M18.948,3.82q-.208,1.135-.65,3.1-.748,3.267-1.176,5.827a30.506,30.506,0,0,0-.429,5.052,5.984,5.984,0,0,0,.208,1.854,3.937,3.937,0,0,0,.651,1.135,5.282,5.282,0,0,1-1.675,1.01,5.034,5.034,0,0,1-1.758.346,2.811,2.811,0,0,1-2.394-.969,5.006,5.006,0,0,1-.734-3.017v-.111l-.3-.138a7.241,7.241,0,0,1-2.256,3.114,5.193,5.193,0,0,1-3.253,1.121,4.722,4.722,0,0,1-2.727-.8A5.131,5.131,0,0,1,.637,19.059,8.584,8.584,0,0,1,0,15.64a9.915,9.915,0,0,1,1.4-5.26A9.492,9.492,0,0,1,5.3,6.81a12.505,12.505,0,0,1,5.744-1.273,9.917,9.917,0,0,1,1.882.166l.249-1.467-1.55-2.214a12.188,12.188,0,0,1,2.6-1.467A6.824,6.824,0,0,1,16.8,0,2.813,2.813,0,0,1,18.63.457a1.906,1.906,0,0,1,.526,1.509A10.736,10.736,0,0,1,18.948,3.82ZM12.485,8.111A8.863,8.863,0,0,0,8.941,9.218a7.258,7.258,0,0,0-2.533,2.325,5.4,5.4,0,0,0-.927,3.017,3.352,3.352,0,0,0,.567,2.09,1.9,1.9,0,0,0,1.592.734,3.232,3.232,0,0,0,2.09-.844,6.646,6.646,0,0,0,1.7-2.311Q11.765,12.235,12.485,8.111Z" fill="#0a405b"/>
            <path id="Path_114" data-name="Path 114" d="M17.19,15.945A5.007,5.007,0,0,1,13.9,17.3a3.456,3.456,0,0,1-2.284-.665,3.028,3.028,0,0,1-.955-2.048l-.277-.139a8.092,8.092,0,0,1-2.657,2.1,7.5,7.5,0,0,1-3.35.747A4.414,4.414,0,0,1,1.08,16.194,4.668,4.668,0,0,1,0,12.817a15.233,15.233,0,0,1,.166-2.173Q.332,9.5.664,7.889q.221-1.107.388-2.2a12.505,12.505,0,0,0,.166-1.813,6.593,6.593,0,0,0-.152-1.467A2.948,2.948,0,0,0,.637,1.356,15.186,15.186,0,0,1,3,.388,6.987,6.987,0,0,1,4.983,0,2.442,2.442,0,0,1,6.63.457a1.936,1.936,0,0,1,.512,1.509A13.041,13.041,0,0,1,6.865,4.1q-.277,1.468-.581,2.962Q5.979,8.5,5.716,9.882a12.186,12.186,0,0,0-.263,1.965A2.335,2.335,0,0,0,5.9,13.426a1.8,1.8,0,0,0,1.412.5,3.648,3.648,0,0,0,1.868-.567,5.73,5.73,0,0,0,1.675-1.536Q11.239,9.412,12.4,4.4l-1.55-2.325A21.677,21.677,0,0,1,13.993.471,6.5,6.5,0,0,1,16.3,0,2.234,2.234,0,0,1,17.9.471a2.141,2.141,0,0,1,.484,1.578,7.479,7.479,0,0,1-.208,1.315q-.208.955-.457,2.09-.637,2.63-1.01,4.581a18.377,18.377,0,0,0-.374,3.391A3.142,3.142,0,0,0,17.19,15.945Z" transform="translate(21.37 4.844)" fill="#0a405b"/>
            <path id="Path_115" data-name="Path 115" d="M18.948,3.82q-.208,1.135-.651,3.1-.747,3.267-1.177,5.827a30.513,30.513,0,0,0-.429,5.052,5.987,5.987,0,0,0,.208,1.854,3.942,3.942,0,0,0,.65,1.135,5.281,5.281,0,0,1-1.675,1.01,5.033,5.033,0,0,1-1.758.346,2.811,2.811,0,0,1-2.395-.969,5.006,5.006,0,0,1-.734-3.017v-.111l-.3-.138a7.241,7.241,0,0,1-2.256,3.114,5.193,5.193,0,0,1-3.253,1.121,4.721,4.721,0,0,1-2.727-.8A5.13,5.13,0,0,1,.637,19.059,8.585,8.585,0,0,1,0,15.64a9.916,9.916,0,0,1,1.4-5.26A9.492,9.492,0,0,1,5.3,6.81a12.506,12.506,0,0,1,5.744-1.273,9.918,9.918,0,0,1,1.882.166l.249-1.467-1.55-2.214a12.191,12.191,0,0,1,2.6-1.467A6.823,6.823,0,0,1,16.8,0,2.814,2.814,0,0,1,18.63.457a1.907,1.907,0,0,1,.526,1.509A10.746,10.746,0,0,1,18.948,3.82ZM12.484,8.111A8.864,8.864,0,0,0,8.941,9.218a7.257,7.257,0,0,0-2.533,2.325,5.4,5.4,0,0,0-.927,3.017,3.352,3.352,0,0,0,.568,2.09,1.9,1.9,0,0,0,1.592.734,3.233,3.233,0,0,0,2.09-.844,6.645,6.645,0,0,0,1.7-2.311Q11.765,12.235,12.484,8.111Z" transform="translate(41.938)" fill="#0a405b"/>
            <path id="Path_116" data-name="Path 116" d="M14.948,7.322a8.215,8.215,0,0,1-3.723,2.131,19.926,19.926,0,0,1-5.744.733v.249a5.653,5.653,0,0,0,.651,2.948A2.023,2.023,0,0,0,7.945,14.45a2.96,2.96,0,0,0,2.325-1.038,4.2,4.2,0,0,0,.969-2.727,4.408,4.408,0,0,1,2.533.609,2.026,2.026,0,0,1,.872,1.772,2.963,2.963,0,0,1-.969,2.131,6.717,6.717,0,0,1-2.644,1.536,11.47,11.47,0,0,1-3.7.568,7.556,7.556,0,0,1-5.4-1.827A6.66,6.66,0,0,1,0,10.381,10.2,10.2,0,0,1,1.412,5.052a9.94,9.94,0,0,1,3.9-3.709A11.6,11.6,0,0,1,10.907,0a6.452,6.452,0,0,1,3.945,1.052,3.493,3.493,0,0,1,1.4,2.962A4.694,4.694,0,0,1,14.948,7.322Zm-7.516-2.7A8.208,8.208,0,0,0,5.758,8.111,9.592,9.592,0,0,0,9.979,6.976,2.723,2.723,0,0,0,11.46,4.6a1.26,1.26,0,0,0-.415-.983,1.552,1.552,0,0,0-1.08-.374A3.343,3.343,0,0,0,7.432,4.623Z" transform="translate(62.837 4.844)" fill="#0a405b"/>
          </g>
        </g>
      </g>
      <g id="Group_85" data-name="Group 85" transform="translate(1336.142 826.176)">
        <g id="Group_71" data-name="Group 71">
          <path id="Path_123" data-name="Path 123" d="M6070.267,2416.972c2.584-10.25,10.967-14.9,23.093-16.114,24.07-2.415,146.033-2.345,161.107-.9,10.2.979,13.671,4.325,15.74,13.191,2.175,9.319,1.209,20.692.016,30.093-2.237,17.616-10.79,19.254-18.3,19.749-2.424.16-5.1.3-7.947.427a32.953,32.953,0,0,1-1.659,4.283c-1.839,4.165-5.1,8.335-9.251,10.345a.85.85,0,0,1-1.234-.949c.76-4.563.754-9.188-.977-13.252-23.746.533-127.2.066-143-1.8-8.447-1-13.651-3.713-15.96-10.7C6067.725,2438.742,6068.461,2424.126,6070.267,2416.972Z" transform="translate(-6055.595 -2397.272)" fill="#ff5671"/>
          <g id="Group_60" data-name="Group 60" transform="translate(13.232 6.086)">
            <path id="Path_124" data-name="Path 124" d="M6086.561,2418.639a34.716,34.716,0,0,0-7.819,9.627c-4.424,8.438-2.1,25.375.041,34.076,3.343,13.626,19.152,13.1,30.835,13.659,13.938.674,108.543,1.357,122.434.32,3.616-.27,4.982,2.012,5.592,4.15a18.283,18.283,0,0,1,.736,5.026c.047,2.653.02,4.176,2.229,1.082,2.8-3.929,3.6-7.591,4.38-9.238.571-1.2,1.946-1.4,3.185-1.6,11.085-1.747,16.633-.063,21.328-6.252,2.571-3.39,4.442-9.694,5.186-13.955-.116,1.013-.235,2.013-.359,2.988-2.237,17.616-10.791,19.254-18.3,19.749-2.424.159-5.1.3-7.946.427a33.109,33.109,0,0,1-1.659,4.283c-1.839,4.165-5.1,8.335-9.251,10.345a.85.85,0,0,1-1.234-.949c.76-4.564.755-9.189-.977-13.252-23.745.533-127.2.066-143-1.8-8.447-1-13.65-3.713-15.961-10.7-4.17-12.612-3.434-27.228-1.628-34.382C6076.085,2425.463,6080.355,2421.142,6086.561,2418.639Z" transform="translate(-6072.934 -2418.639)" fill="#e23f58"/>
          </g>
          <g id="Group_61" data-name="Group 61" transform="translate(178.46 4.834)">
            <path id="Path_125" data-name="Path 125" d="M6086.185,2414.121c8.274-2.02,21.265-1.515,27.9,4.488,8.346,7.547,5.31,25.58,3.411,35.154-.074.374-.6.256-.629-.085-.367-5.3-.871-10.591-1.269-15.888-.427-5.674-.245-11.925-4.292-16.4-5.456-6.033-18.052-4.093-25.125-6.9a.192.192,0,0,1,0-.366Z" transform="translate(-6086.049 -2413.053)" fill="#ff8098"/>
          </g>
          <g id="Group_62" data-name="Group 62" transform="translate(170.554 4.988)">
            <path id="Path_126" data-name="Path 126" d="M6251.482,2414.909c-.715.8-2.369.755-3.364.764-.7.006-2.281.086-2.281-1.038,0-1.061,1.681-.892,2.281-.88,1.028.021,2.759-.015,3.389.959a.162.162,0,0,1-.025.194Z" transform="translate(-6245.837 -2413.739)" fill="#ff8098"/>
          </g>
          <g id="Group_63" data-name="Group 63" transform="translate(22.012 46.002)">
            <path id="Path_127" data-name="Path 127" d="M6861.367,2609.761c-3.766,2.578-10.712.3-14.467-1.475a11.922,11.922,0,0,1-6.47-11.13.383.383,0,0,1,.708-.192c2.076,3.456,3.284,7.154,7,9.206,3.913,2.162,8.944,2.243,13.2,3.335a.141.141,0,0,1,.032.256Z" transform="translate(-6840.429 -2596.783)" fill="#ff8098"/>
          </g>
          <g id="Group_64" data-name="Group 64" transform="translate(44.877 57.968)">
            <path id="Path_128" data-name="Path 128" d="M6813.5,2651.281c-.289.734-1.3.781-1.977.84a11.517,11.517,0,0,1-1.754-.067c-.689-.049-1-.531-1.5-.917a.253.253,0,0,1,.06-.457c.468-.141.917-.543,1.441-.484.7.078,1.412.094,2.113.183.267.033,1.857.3,1.618.9Z" transform="translate(-6808.146 -2650.189)" fill="#ff8098"/>
          </g>
          <g id="Group_65" data-name="Group 65" transform="translate(0 4.626)">
            <path id="Path_129" data-name="Path 129" d="M6987.426,2419.079c-1.706.809-4.764-.351-6.3-1.081a15.976,15.976,0,0,1-6.541-5.2.454.454,0,0,1,.389-.677,14.27,14.27,0,0,1,7.514,2.312c1.67.969,4.21,2.638,4.994,4.508a.121.121,0,0,1-.058.136Z" transform="translate(-6974.516 -2412.123)" fill="#fff"/>
          </g>
          <g id="Group_66" data-name="Group 66" transform="translate(1.291 15.367)">
            <path id="Path_130" data-name="Path 130" d="M6996.958,2461.646c-1.006,1.2-2.392,1.26-3.873,1.3-1.638.048-3.346.053-4.547-1.213a.286.286,0,0,1,0-.4c1.181-1.3,2.9-1.31,4.547-1.273,1.481.034,2.868.095,3.873,1.3a.205.205,0,0,1,0,.283Z" transform="translate(-6988.458 -2460.059)" fill="#fff"/>
          </g>
          <g id="Group_67" data-name="Group 67" transform="translate(9.903)">
            <path id="Path_131" data-name="Path 131" d="M6966.352,2398.132c-1.282.5-2.763-1.005-3.531-1.844a8.808,8.808,0,0,1-2.065-4.325.394.394,0,0,1,.573-.44c.745.348,1.457.748,2.2,1.1a7.76,7.76,0,0,1,2.1,2.057c.52.594,2.1,2.918.727,3.448Z" transform="translate(-6960.744 -2391.479)" fill="#fff"/>
          </g>
          <g id="Group_68" data-name="Group 68" transform="translate(209.672 65.658)">
            <path id="Path_132" data-name="Path 132" d="M6073.941,2691.609c-1.337-.026-2.5-1.452-3.321-2.373a15.653,15.653,0,0,1-2.868-4.253c-.1-.22.065-.559.35-.455a9.629,9.629,0,0,1,4.208,3.017c.863.989,2.178,2.488,1.843,3.9a.219.219,0,0,1-.212.161Z" transform="translate(-6067.724 -2684.508)" fill="#fff"/>
          </g>
          <g id="Group_69" data-name="Group 69" transform="translate(211.873 61.963)">
            <path id="Path_133" data-name="Path 133" d="M6065.491,2671.4c-.856.484-2.121-.04-2.945-.382-1.309-.543-2.41-1.029-3.052-2.34a.346.346,0,0,1,.2-.5c1.294-.415,2.173.016,3.326.63.88.469,2.353,1.3,2.56,2.366a.2.2,0,0,1-.092.226Z" transform="translate(-6059.453 -2668.018)" fill="#fff"/>
          </g>
          <g id="Group_70" data-name="Group 70" transform="translate(205.643 67.558)">
            <path id="Path_134" data-name="Path 134" d="M6103.828,2698.728c-1.037-.229-1.451-1.385-1.824-2.25a4.88,4.88,0,0,1-.478-1.541,4.253,4.253,0,0,1,.377-1.75.272.272,0,0,1,.452-.119c.312.373.677.646.976,1.036a5.071,5.071,0,0,1,.62,1.552c.283.907.812,1.992.284,2.906a.365.365,0,0,1-.406.165Z" transform="translate(-6101.52 -2692.986)" fill="#fff"/>
          </g>
        </g>
        <g id="Group_8" data-name="Group 8" transform="translate(38.686 18.044)">
          <path id="Path_51" data-name="Path 51" d="M1118.534,461.1v22.211h-5.41V474.17h-8.417v9.144h-5.41V461.1h5.41v8.7h8.417v-8.7Z" transform="translate(-1099.297 -459.9)" fill="#fff"/>
          <path id="Path_52" data-name="Path 52" d="M1147.08,474.5a7.675,7.675,0,0,1,2.8-3.164,7.314,7.314,0,0,1,3.955-1.107,6.791,6.791,0,0,1,3.275.759,5.594,5.594,0,0,1,2.167,1.993v-2.5h5.411v17.655h-5.411v-2.5a5.839,5.839,0,0,1-2.2,1.993,6.789,6.789,0,0,1-3.274.759,7.176,7.176,0,0,1-3.924-1.123,7.759,7.759,0,0,1-2.8-3.2,11.649,11.649,0,0,1,0-9.571Zm11.074,1.614a3.8,3.8,0,0,0-5.474-.016,4.369,4.369,0,0,0-1.123,3.18,4.478,4.478,0,0,0,1.123,3.211,3.767,3.767,0,0,0,5.474.016,5.108,5.108,0,0,0,0-6.391Z" transform="translate(-1123.999 -464.72)" fill="#fff"/>
          <path id="Path_53" data-name="Path 53" d="M1199.289,458.553v23.414h-5.41V458.553Z" transform="translate(-1149.268 -458.553)" fill="#fff"/>
          <path id="Path_54" data-name="Path 54" d="M1212.416,474.5a7.672,7.672,0,0,1,2.8-3.164,7.315,7.315,0,0,1,3.955-1.107,6.791,6.791,0,0,1,3.275.759,5.591,5.591,0,0,1,2.167,1.993v-2.5h5.411v17.655h-5.411v-2.5a5.838,5.838,0,0,1-2.2,1.993,6.79,6.79,0,0,1-3.274.759,7.177,7.177,0,0,1-3.924-1.123,7.756,7.756,0,0,1-2.8-3.2,11.649,11.649,0,0,1,0-9.571Zm11.074,1.614a3.8,3.8,0,0,0-5.474-.016,4.368,4.368,0,0,0-1.123,3.18,4.478,4.478,0,0,0,1.123,3.211,3.767,3.767,0,0,0,5.474.016,5.109,5.109,0,0,0,0-6.391Z" transform="translate(-1158.519 -464.72)" fill="#fff"/>
          <path id="Path_55" data-name="Path 55" d="M1286.082,461.1v15.123a7.149,7.149,0,0,1-1.978,5.41,7.373,7.373,0,0,1-5.331,1.9,7.884,7.884,0,0,1-5.632-1.993,7.4,7.4,0,0,1-2.12-5.664h5.379a3.318,3.318,0,0,0,.569,2.1,1.983,1.983,0,0,0,1.646.712,1.883,1.883,0,0,0,1.518-.633,2.76,2.76,0,0,0,.538-1.835V461.1Z" transform="translate(-1190.025 -459.9)" fill="#fff"/>
          <path id="Path_56" data-name="Path 56" d="M1310.955,474.5a7.671,7.671,0,0,1,2.8-3.164,7.313,7.313,0,0,1,3.955-1.107,6.8,6.8,0,0,1,3.276.759,5.592,5.592,0,0,1,2.167,1.993v-2.5h5.41v17.655h-5.41v-2.5a5.844,5.844,0,0,1-2.2,1.993,6.79,6.79,0,0,1-3.275.759,7.177,7.177,0,0,1-3.923-1.123,7.755,7.755,0,0,1-2.8-3.2,11.647,11.647,0,0,1,0-9.571Zm11.073,1.614a3.8,3.8,0,0,0-5.474-.016,4.368,4.368,0,0,0-1.123,3.18,4.478,4.478,0,0,0,1.123,3.211,3.767,3.767,0,0,0,5.474.016,5.106,5.106,0,0,0,0-6.391Z" transform="translate(-1210.58 -464.72)" fill="#fff"/>
          <path id="Path_57" data-name="Path 57" d="M1365.538,471.2a6.123,6.123,0,0,1,3.164-.838v5.727h-1.487a4.561,4.561,0,0,0-3.038.87,3.866,3.866,0,0,0-1.012,3.054V488.2h-5.411V470.549h5.411v2.943A7.148,7.148,0,0,1,1365.538,471.2Z" transform="translate(-1235.849 -464.791)" fill="#fff"/>
          <path id="Path_58" data-name="Path 58" d="M1402.268,470.762l-11.074,26.04h-5.822l4.05-8.986-7.182-17.054h6.043l4.082,11.043,4.05-11.043Z" transform="translate(-1248.785 -465.003)" fill="#fff"/>
        </g>
      </g>
      <g id="Group_84" data-name="Group 84" transform="translate(1531.988 867.432)">
        <g id="Group_80" data-name="Group 80" transform="translate(57.465 0) rotate(31)">
          <path id="Path_135" data-name="Path 135" d="M5.024,30.975c7.106-11.83,20.419-12.72,32.841-12.615,16.388.139,29.949-5.994,44.593-12.576,9.865-4.434,19.8-7.376,30.65-4.856a36.362,36.362,0,0,1,27.649,40.713,30,30,0,0,1-6.286,14.569C128.25,66.764,116.9,73.475,105.445,78.063a27.412,27.412,0,0,1-4.308,19.478c-3.6,5.547-9.172,8.889-15.24,10.94-6.462,2.185-6.144-1.326-4.381-6.326a39.414,39.414,0,0,0,1.879-10.161,27.194,27.194,0,0,0-.427-7.082A158.232,158.232,0,0,1,46.694,88.54c-19.288-.316-38.264-6.5-44.757-26.45C-1.373,51.906-.5,40.177,5.024,30.975Z" transform="translate(0 2.43)" fill="#ef70e9"/>
          <path id="Path_136" data-name="Path 136" d="M0,39.119c-.067-7.833,3.262-15.988,9.573-20,10.083-6.418,24.353-2.548,35.49-4.3C58.987,12.637,69.571.385,83.989.008c9.822-.257,20.65,5.556,23.786,16.085,2.195,7.371-1.077,13.757-5.888,18.636-6.481,8.042-16.421,12.832-25.321,16.965A115.4,115.4,0,0,1,41.335,61.41c-10.371,1.246-21.609,1.523-31.479-3.123C2.741,54.938.068,46.812,0,39.119Z" transform="translate(19.096 12.154)" fill="#ff85ff"/>
          <path id="Path_137" data-name="Path 137" d="M46.694,72.44c-19.288-.316-38.264-6.5-44.757-26.45C-1.373,35.806-.5,24.077,5.024,14.875A23.328,23.328,0,0,1,17.483,4.74a30.025,30.025,0,0,0-9.9,11.411C-1.149,34.18,5.806,52.116,16.949,60.859c11.054,8.673,39.6,8.747,56.22,5.457,10.414-2.06,13.5-2.578,14.452,2.147a38.83,38.83,0,0,1-1.795,19.49c11.373-3.7,14.8-13.314,15.593-25.619.181-2.807,4.7-4.794,8.056-6.065C130.923,48.147,146.57,24.726,135,0a36.877,36.877,0,0,1,5.76,25.541,30,30,0,0,1-6.286,14.569C128.25,50.664,116.9,57.375,105.445,61.962a27.413,27.413,0,0,1-4.308,19.478c-3.6,5.547-9.173,8.889-15.24,10.94-6.462,2.186-6.144-1.326-4.381-6.325a39.405,39.405,0,0,0,1.879-10.161,27.183,27.183,0,0,0-.427-7.082A158.235,158.235,0,0,1,46.694,72.44Z" transform="translate(0 18.53)" fill="#d354d3"/>
          <g id="Group_72" data-name="Group 72" transform="translate(129.48 6.617)">
            <path id="Path_138" data-name="Path 138" d="M.237.014C10.689,4.8,15.829,19.031,16.827,29.61c1.044,11.056-2.948,24.972-13.282,30.6a.268.268,0,0,1-.323-.419c7.445-9.126,12.024-18.078,11.235-30.179a42.777,42.777,0,0,0-4.68-16.123C7.251,8.434,3.278,4.718.028.223-.071.085.114-.043.237.014Z" fill="#fff"/>
          </g>
          <g id="Group_73" data-name="Group 73" transform="translate(127.535 68.273)">
            <path id="Path_139" data-name="Path 139" d="M3.819.1a.026.026,0,0,0,.008.008.4.4,0,0,1,.059.461,5.556,5.556,0,0,1-1.58,1.756,13,13,0,0,1-1.083.833,1.547,1.547,0,0,1-1.07.15.153.153,0,0,1-.146-.193c.088-.271.078-.553.293-.774a8.514,8.514,0,0,1,1.065-.84,15.262,15.262,0,0,1,2-1.453.378.378,0,0,1,.383,0c.024.016.048.034.07.051Z" fill="#fff"/>
          </g>
          <g id="Group_74" data-name="Group 74" transform="translate(40.013 91.53)">
            <path id="Path_140" data-name="Path 140" d="M38.117.27C27.243,5.355,11.482,6.343.176,2.461c-.257-.088-.23-.511.067-.494,6.037.352,12.168.507,18.211.263C25.044,1.962,31.487.38,38.044,0a.145.145,0,0,1,.073.27Z" fill="#fff"/>
          </g>
          <g id="Group_75" data-name="Group 75" transform="translate(1.105 16.689)">
            <path id="Path_141" data-name="Path 141" d="M27.086.929C20.548,2.245,14.648,2.577,8.894,6.361c-3.827,2.517-5.876,6.315-8.5,9.9a.207.207,0,0,1-.383-.1C-.28,11.748,3.76,7.67,7.046,5.283,12.579,1.264,20.313-1.259,27.086.649a.146.146,0,0,1,0,.28Z" fill="#fff"/>
          </g>
          <g id="Group_76" data-name="Group 76" transform="translate(29.89 16.881)">
            <path id="Path_142" data-name="Path 142" d="M4.881,1.239c-.562.581-1.567.493-2.307.491A3.2,3.2,0,0,1,.079.847.276.276,0,0,1,.134.417,3.8,3.8,0,0,1,2.795.1c.729.117,1.738.236,2.108.976a.142.142,0,0,1-.022.167Z" fill="#fff"/>
          </g>
          <g id="Group_77" data-name="Group 77" transform="translate(0.2 69.184)">
            <path id="Path_143" data-name="Path 143" d="M10.749,13.777C4.573,13.805-.033,5.785,0,.338A.346.346,0,0,1,.64.165C3.573,5.2,5.731,10.273,10.8,13.577a.108.108,0,0,1-.054.2Z" fill="#fff"/>
          </g>
          <g id="Group_78" data-name="Group 78" transform="translate(74.469 0)">
            <path id="Path_144" data-name="Path 144" d="M17.233.444c-2.713,1.45-5.674,2.457-8.48,3.719A28.925,28.925,0,0,1,.215,6.992c-.252.031-.272-.309-.114-.426C4.473,3.313,11.476-.46,17.125.046c.2.017.31.29.108.4Z" fill="#fff"/>
          </g>
          <g id="Group_79" data-name="Group 79" transform="translate(101.066 86.812)">
            <path id="Path_145" data-name="Path 145" d="M8.676.2c.871,3.554-.057,6.745-1.507,10.02C5.78,13.351,3.553,17.386.426,19.049A.286.286,0,0,1,.01,18.73c.759-2.738,2.875-4.937,4.324-7.346C6.425,7.91,7.266,4.093,8.148.2a.275.275,0,0,1,.528,0Z" fill="#fff"/>
          </g>
        </g>
        <g id="Group_83" data-name="Group 83" transform="matrix(0.946, 0.326, -0.326, 0.946, 50.341, 44.158)">
          <g id="Group_81" data-name="Group 81" transform="translate(0 0)">
            <path id="Path_146" data-name="Path 146" d="M17.308,19.916c-.163,4.406-7.115,4.275-7.147.1l-.033-4.732-2.97.032.033,4.83c0,4.406-7.049,4.275-7.115.065C-.054,14.6-.022,9.277.207,3.4.37-.873,7.419-.84,7.321,3.566l-.1,4.406,2.97-.032.1-4.765c.1-4.275,7.017-4.243,7.147.163C17.569,8.853,17.5,14.434,17.308,19.916Z" transform="translate(0 2.472)" fill="#fff"/>
            <path id="Path_147" data-name="Path 147" d="M7.082,23.073C6.984,27.316,0,27.316,0,22.943,0,18.864.033,14.784.163,11.1c.13-4.275,7.082-4.275,7.082.1C7.245,15.208,7.212,19.19,7.082,23.073ZM3.851,7.017A3.531,3.531,0,0,1,.359,3.459,3.468,3.468,0,0,1,3.851,0h.033A3.5,3.5,0,0,1,7.408,3.459,3.559,3.559,0,0,1,3.884,7.017Z" transform="translate(18.547)" fill="#fff"/>
          </g>
          <g id="Group_82" data-name="Group 82" transform="translate(35.301 2.3)">
            <path id="Path_148" data-name="Path 148" d="M18.264,14c-.163,1.5-.294,3.329-.587,5.45-.457,3.884-7.6,5.94-12.043,3.492C-1.97,18.9-1.709,5.876,5.405,1.372A9.306,9.306,0,0,1,17.252,3.167c2.774,3.231-1.86,7.963-4.993,4.765-4.8-5.32-7.669,11.031-1.012,9.007l.163-1.305c-4.243-.229-3.622-6.854.294-6.1C15.914,10.412,18.557,10.151,18.264,14Z" fill="#fff"/>
            <path id="Path_149" data-name="Path 149" d="M8.641,11.484c2.089-.131,1.5-4.5,1.24-7.964C9.62-.82,16.375-1.31,16.8,2.966,17.779,11.484,16.408,18.6,8.51,18.6c-7.082,0-9.2-7.31-8.322-15.567.424-4.242,7.147-3.753,6.886.588C6.878,6.784,6.878,11.549,8.641,11.484Z" transform="translate(19.38 5.619)" fill="#fff"/>
            <path id="Path_150" data-name="Path 150" d="M10.008,10.248c.653-2.023.457-4.047.751-7.017.229-4.373,7.115-4.308,7.049.2-.065,12.042-5.124,27.316-15.763,22.78-4.047-1.73-1.5-8.289,2.546-6.69,2.219.848,2.807-1.208,2.872-2.35A14.26,14.26,0,0,1,.185,3.264c.294-4.5,7.18-4.145,6.984.228C7.038,6.528,8.638,9.53,10.008,10.248Z" transform="translate(37.137 5.614)" fill="#fff"/>
            <path id="Path_151" data-name="Path 151" d="M7.206,6.805c-.49,1.371,9.366.783,7.212,7.9-1.436,4.732-7.082,5.352-11.847,3.753-3.982-1.338-2.35-7.017,1.5-5.744,2.187.685,3,.816,3.2.294.62-1.436-9.138-.261-6.951-8.094C1.593.278,6.292-.929,11.286.67c4.243,1.4,1.958,7.669-2.023,6.266C8.609,6.708,7.467,6.153,7.206,6.805Z" transform="translate(55.538 5.434)" fill="#fff"/>
          </g>
        </g>
      </g>
    </g>
  </g>
</svg>
