<svg id="Group_2844" data-name="Group 2844" xmlns="http://www.w3.org/2000/svg" width="226.876" height="135.914" viewBox="0 0 226.876 135.914">
  <g id="Group_17" data-name="Group 17" transform="translate(21.37 39.348)">
    <ellipse id="Ellipse_15" data-name="Ellipse 15" cx="31.729" cy="31.729" rx="31.729" ry="31.729" transform="translate(92.466 33.108)" fill="#fe5d67"/>
    <path id="Path_72" data-name="Path 72" d="M30.481,0A30.481,30.481,0,0,1,60.963,30.481v56.33a9.754,9.754,0,0,1-9.754,9.754H9.754A9.754,9.754,0,0,1,0,86.811V30.481A30.481,30.481,0,0,1,30.481,0Z" transform="translate(52.195 0)" fill="#9f4dff"/>
    <path id="Path_61" data-name="Path 61" d="M978.374,476.138l-21.748,37.669a19.381,19.381,0,0,0,16.786,29.072h43.5a19.381,19.381,0,0,0,16.784-29.072l-21.748-37.669A19.381,19.381,0,0,0,978.374,476.138Z" transform="translate(-954 -446.314)" fill="#ffca2f"/>
    <g id="Group_9" data-name="Group 9" transform="translate(126.795 53.005)">
      <path id="Path_62" data-name="Path 62" d="M1055.24,501.161a9.054,9.054,0,0,0,15.438-6.42,8.794,8.794,0,0,0-.047-.917,1.373,1.373,0,1,0-2.732.277c.021.214.032.427.032.64a6.306,6.306,0,0,1-10.755,4.473,1.374,1.374,0,1,0-1.937,1.948Z" transform="translate(-1054.836 -492.589)"/>
    </g>
    <ellipse id="Ellipse_16" data-name="Ellipse 16" cx="3.848" cy="3.848" rx="3.848" ry="3.848" transform="translate(133.522 42.045)"/>
    <ellipse id="Ellipse_17" data-name="Ellipse 17" cx="3.848" cy="3.848" rx="3.848" ry="3.848" transform="translate(120.451 47.882)"/>
    <ellipse id="Ellipse_18" data-name="Ellipse 18" cx="3.686" cy="3.686" rx="3.686" ry="3.686" transform="translate(32.343 40.48)"/>
    <ellipse id="Ellipse_19" data-name="Ellipse 19" cx="3.686" cy="3.686" rx="3.686" ry="3.686" transform="translate(21.9 38.859)"/>
    <g id="Group_10" data-name="Group 10" transform="translate(19.424 50.475)">
      <path id="Path_63" data-name="Path 63" d="M982.283,506.867a12.927,12.927,0,0,1-2.437-.233h0a12.821,12.821,0,0,1-10.168-14.989,1.313,1.313,0,0,1,1.539-1.045l22.575,4.324a1.316,1.316,0,0,1,1.043,1.539,12.814,12.814,0,0,1-12.552,10.4ZM972.1,493.449a10.192,10.192,0,0,0,8.244,10.6h0a10.18,10.18,0,0,0,11.578-6.8Z" transform="translate(-969.447 -490.577)"/>
    </g>
    <path id="Path_64" data-name="Path 64" d="M1022.839,487.141a15.085,15.085,0,0,0,15.084-15.084h-30.169A15.085,15.085,0,0,0,1022.839,487.141Z" transform="translate(-940.161 -444.87)"/>
    <ellipse id="Ellipse_20" data-name="Ellipse 20" cx="4.216" cy="4.216" rx="4.216" ry="4.216" transform="translate(85.149 11.949)"/>
    <ellipse id="Ellipse_21" data-name="Ellipse 21" cx="4.216" cy="4.216" rx="4.216" ry="4.216" transform="translate(70.828 11.949)"/>
    <path id="Path_65" data-name="Path 65" d="M1023.006,513.005l-21.748-37.669a19.4,19.4,0,0,0-5.063-5.774,30.636,30.636,0,0,0-.686,6.432v56.33a9.754,9.754,0,0,0,9.754,9.754h.958A19.381,19.381,0,0,0,1023.006,513.005Z" transform="translate(-943.314 -445.512)" fill="#ff29e6"/>
    <path id="Path_67" data-name="Path 67" d="M1027.535,508.083a31.73,31.73,0,0,0,18.051,28.636,9.711,9.711,0,0,0,2.642-6.661V478.331A31.735,31.735,0,0,0,1027.535,508.083Z" transform="translate(-935.069 -443.254)" fill="#00d0ff"/>
  </g>
  <g id="Group_86" data-name="Group 86" transform="translate(0 17.718)">
    <path id="Path_75" data-name="Path 75" d="M185.575,776.513c-13.958,1.744-25.366,12.867-23.061,25.929,2.515,14.253,13.452,19.155,23.968,19.17,1.457,2.517,3.991,5.657,8.255,6.086,1.371.138,2.338.166,1.16-1.965a11.959,11.959,0,0,1-1.689-4.967,31.1,31.1,0,0,0,6.845-2.343c8.106-3.961,13.95-12.787,11.919-22.861C210.718,784.374,198.708,774.872,185.575,776.513Z" transform="translate(-162.193 -775.114)" fill="#67d8eb"/>
    <path id="Path_76" data-name="Path 76" d="M256.216,829.617c-7.437-1.645-17.121.821-23.093,5.906-3.752,3.195-8.459,11.714-2.663,18.156,3.346,3.72,9.584,3.566,14.231,2.834,7.906-1.246,27.3-9.346,20.413-21.247C263.641,832.738,260.813,830.633,256.216,829.617Z" transform="translate(-223.596 -824.577)" fill="#71f2ff"/>
    <path id="Path_77" data-name="Path 77" d="M194.428,1107.377c-.657.149-1.545.175-1.632.924-.158,1.374,1.314,4.975.242,4.669a8.463,8.463,0,0,1-4.625-3.884c-.891-1.381-1.933-.662-4.126-.9-11.407-1.246-22.072-8.684-21.755-24.412a18.96,18.96,0,0,0-.022,6.779c2.515,14.253,13.452,19.155,23.968,19.17,1.457,2.517,3.991,5.657,8.256,6.085,1.371.138,2.338.166,1.16-1.965a11.96,11.96,0,0,1-1.689-4.967,31.1,31.1,0,0,0,6.845-2.343,22.61,22.61,0,0,0,9.7-9.029C206.269,1104.252,198.605,1106.433,194.428,1107.377Z" transform="translate(-162.191 -1063.223)" fill="#65b3bc"/>
    <g id="Group_20" data-name="Group 20" transform="translate(32.513)">
      <path id="Path_78" data-name="Path 78" d="M678.881,757.222c5.14.956,9.4,3.727,13.073,7.354a.093.093,0,0,0,.146-.112c-2.019-4.369-8.459-7.864-13.2-7.4-.085.008-.119.142-.022.16Z" transform="translate(-678.822 -757.021)" fill="#fff"/>
    </g>
    <g id="Group_21" data-name="Group 21" transform="translate(46.3 8.256)">
      <path id="Path_79" data-name="Path 79" d="M898.033,888.375a1.317,1.317,0,0,0,.306.794c.191.258.361.6.723.61a.085.085,0,0,0,.075-.043c.142-.333-.093-.593-.29-.844a1.707,1.707,0,0,0-.725-.585.071.071,0,0,0-.089.068Z" transform="translate(-898.033 -888.304)" fill="#fff"/>
    </g>
    <g id="Group_22" data-name="Group 22" transform="translate(2.002 37.304)">
      <path id="Path_80" data-name="Path 80" d="M193.672,1350.233a11.676,11.676,0,0,0,3.205,5.113c1.42,1.4,3.646,3.024,5.733,2.8a.1.1,0,0,0,.052-.194c-1.791-1.113-3.621-1.695-5.236-3.151a22.8,22.8,0,0,1-3.673-4.6.045.045,0,0,0-.082.035Z" transform="translate(-193.67 -1350.177)" fill="#fff"/>
    </g>
    <g id="Group_23" data-name="Group 23" transform="translate(0 3.375)">
      <path id="Path_81" data-name="Path 81" d="M161.976,822.788a38.006,38.006,0,0,1,4.531-6.77c1.993-2.142,4.58-3.546,7-5.129a.107.107,0,0,0-.082-.195c-5.373.786-11.26,6.51-11.587,12.057a.073.073,0,0,0,.136.037Z" transform="translate(-161.84 -810.692)" fill="#fff"/>
    </g>
    <g id="Group_24" data-name="Group 24" transform="translate(41.423 33.367)">
      <path id="Path_82" data-name="Path 82" d="M820.575,1298.189c4.522-.979,9.711-5.75,10.117-10.5.01-.119-.159-.151-.214-.058a24.716,24.716,0,0,1-9.956,10.433.071.071,0,0,0,.054.129Z" transform="translate(-820.488 -1287.574)" fill="#fff"/>
    </g>
    <g id="Group_25" data-name="Group 25" transform="translate(38.323 44.279)">
      <path id="Path_83" data-name="Path 83" d="M771.259,1461.985a1.518,1.518,0,0,0,1.311.067,1.623,1.623,0,0,0,1.064-.84.085.085,0,0,0-.073-.127c-.181.014-.361,0-.54.024a2.75,2.75,0,0,0-.647.234,4.133,4.133,0,0,0-1.138.467c-.062.048-.029.139.023.176Z" transform="translate(-771.202 -1461.085)" fill="#fff"/>
    </g>
    <g id="Group_54" data-name="Group 54" transform="translate(6.34 18.322) rotate(-16)">
      <path id="Path_110" data-name="Path 110" d="M.356,9.769A1.712,1.712,0,0,1,0,8.587,11.965,11.965,0,0,1,.216,6.822Q.432,5.577.851,3.43l.279-1.486L.419.927A5.593,5.593,0,0,1,1.613.254,3.13,3.13,0,0,1,2.795,0a1.29,1.29,0,0,1,.838.21A.875.875,0,0,1,3.875.9a4.344,4.344,0,0,1-.1.794q-.1.489-.3,1.328-.267,1.143-.394,1.728l.127.064A5.907,5.907,0,0,1,4.9,2.871a3.336,3.336,0,0,1,1.925-.648A1.589,1.589,0,0,1,7.978,2.6,1.568,1.568,0,0,1,8.359,3.76a4.863,4.863,0,0,1-.089.9Q8.181,5.132,8,5.92q-.2.851-.3,1.391a6.163,6.163,0,0,0-.1,1.073A1.99,1.99,0,0,0,7.876,9.54a2.052,2.052,0,0,1-1.4.622,1.454,1.454,0,0,1-1.131-.394,1.712,1.712,0,0,1-.356-1.181A5.2,5.2,0,0,1,5.107,7.52q.114-.546.33-1.245.165-.584.241-.921a2.765,2.765,0,0,0,.076-.6q0-.533-.432-.534a1.878,1.878,0,0,0-1.131.553A4.557,4.557,0,0,0,3.081,6.282a4.765,4.765,0,0,0-.464,2.1A1.989,1.989,0,0,0,2.884,9.54a2.052,2.052,0,0,1-1.4.622A1.454,1.454,0,0,1,.356,9.769Z" transform="translate(0.267 0)" fill="#0a405b"/>
      <path id="Path_111" data-name="Path 111" d="M6.86,3.36a3.769,3.769,0,0,1-1.709.978,9.146,9.146,0,0,1-2.636.337v.114a2.593,2.593,0,0,0,.3,1.353.928.928,0,0,0,.832.489,1.358,1.358,0,0,0,1.067-.476A1.925,1.925,0,0,0,5.158,4.9a2.023,2.023,0,0,1,1.162.28A.929.929,0,0,1,6.72,6a1.36,1.36,0,0,1-.445.978,3.084,3.084,0,0,1-1.213.7,5.263,5.263,0,0,1-1.7.26A3.468,3.468,0,0,1,.889,7.1,3.057,3.057,0,0,1,0,4.764,4.681,4.681,0,0,1,.648,2.318,4.563,4.563,0,0,1,2.439.616,5.322,5.322,0,0,1,5.005,0a2.961,2.961,0,0,1,1.81.483,1.6,1.6,0,0,1,.642,1.359A2.154,2.154,0,0,1,6.86,3.36ZM3.411,2.121a3.767,3.767,0,0,0-.769,1.6A4.4,4.4,0,0,0,4.58,3.2a1.249,1.249,0,0,0,.68-1.093.578.578,0,0,0-.191-.451.712.712,0,0,0-.5-.172A1.534,1.534,0,0,0,3.411,2.121Z" transform="translate(9.743 2.223)" fill="#0a405b"/>
      <path id="Path_112" data-name="Path 112" d="M9.566,1.118A9.637,9.637,0,0,1,8.626,4.8,11.366,11.366,0,0,1,6.009,8.568a5.369,5.369,0,0,1-3.8,1.594A2.943,2.943,0,0,1,.565,9.782,1.251,1.251,0,0,1,0,8.676a1.423,1.423,0,0,1,.191-.7,1.6,1.6,0,0,1,.432-.521,1.688,1.688,0,0,0,.61.584,1.977,1.977,0,0,0,1,.229,2.877,2.877,0,0,0,1.423-.419,1.692,1.692,0,0,1-1.086-.781A3.294,3.294,0,0,1,2.14,5.742a17.709,17.709,0,0,1-.083-1.905q-.013-.915-.044-1.461a4.4,4.4,0,0,0-.184-1.042A1.685,1.685,0,0,0,1.347.546,2.339,2.339,0,0,1,2.858,0,1.414,1.414,0,0,1,3.97.419a2.168,2.168,0,0,1,.5,1.08,9.254,9.254,0,0,1,.121,1.626L4.573,4.446a8.066,8.066,0,0,0,.1,1.416,1.445,1.445,0,0,0,.407.832A7.606,7.606,0,0,0,6.46,4.344a8.543,8.543,0,0,0,.527-3.061A4.488,4.488,0,0,0,6.923.546,1.94,1.94,0,0,1,7.578.152,2.126,2.126,0,0,1,8.333,0Q9.565,0,9.566,1.118Z" transform="translate(16.781 2.223)" fill="#0a405b"/>
      <g id="Group_53" data-name="Group 53" transform="translate(0 11.599)">
        <path id="Path_113" data-name="Path 113" d="M8.7,1.753q-.1.521-.3,1.423-.343,1.5-.54,2.674a14,14,0,0,0-.2,2.318,2.746,2.746,0,0,0,.1.851,1.807,1.807,0,0,0,.3.521A2.424,2.424,0,0,1,7.285,10a2.31,2.31,0,0,1-.807.159,1.29,1.29,0,0,1-1.1-.445,2.3,2.3,0,0,1-.337-1.385V8.282L4.9,8.219A3.323,3.323,0,0,1,3.868,9.648a2.383,2.383,0,0,1-1.493.514,2.167,2.167,0,0,1-1.251-.368A2.355,2.355,0,0,1,.292,8.746,3.939,3.939,0,0,1,0,7.177,4.55,4.55,0,0,1,.642,4.764,4.356,4.356,0,0,1,2.433,3.125a5.739,5.739,0,0,1,2.636-.584,4.551,4.551,0,0,1,.864.076l.114-.673L5.335.927A5.593,5.593,0,0,1,6.53.254,3.131,3.131,0,0,1,7.711,0a1.291,1.291,0,0,1,.838.21A.875.875,0,0,1,8.791.9,4.927,4.927,0,0,1,8.7,1.753ZM5.729,3.722A4.067,4.067,0,0,0,4.1,4.23,3.331,3.331,0,0,0,2.941,5.3a2.477,2.477,0,0,0-.426,1.385,1.538,1.538,0,0,0,.26.959.87.87,0,0,0,.73.337,1.483,1.483,0,0,0,.959-.387,3.05,3.05,0,0,0,.781-1.061Q5.4,5.615,5.729,3.722Z" transform="translate(0 0)" fill="#0a405b"/>
        <path id="Path_114" data-name="Path 114" d="M7.889,7.317a2.3,2.3,0,0,1-1.512.622,1.586,1.586,0,0,1-1.048-.3,1.389,1.389,0,0,1-.438-.94l-.127-.064A3.713,3.713,0,0,1,3.544,7.6a3.441,3.441,0,0,1-1.537.343A2.025,2.025,0,0,1,.5,7.431,2.142,2.142,0,0,1,0,5.882a6.991,6.991,0,0,1,.076-1Q.152,4.357.3,3.62q.1-.508.178-1.01a5.739,5.739,0,0,0,.076-.832,3.026,3.026,0,0,0-.07-.673,1.353,1.353,0,0,0-.2-.483A6.969,6.969,0,0,1,1.378.178,3.206,3.206,0,0,1,2.287,0a1.121,1.121,0,0,1,.756.21A.888.888,0,0,1,3.277.9a5.985,5.985,0,0,1-.127.978q-.127.674-.267,1.359-.14.661-.26,1.3a5.592,5.592,0,0,0-.121.9,1.072,1.072,0,0,0,.2.724.825.825,0,0,0,.648.229,1.674,1.674,0,0,0,.857-.26,2.629,2.629,0,0,0,.769-.7q.178-1.105.711-3.4L4.98.953A9.948,9.948,0,0,1,6.422.216,2.983,2.983,0,0,1,7.482,0a1.025,1.025,0,0,1,.73.216A.982.982,0,0,1,8.435.94a3.432,3.432,0,0,1-.1.6q-.1.438-.21.959-.292,1.207-.464,2.1a8.433,8.433,0,0,0-.171,1.556A1.442,1.442,0,0,0,7.889,7.317Z" transform="translate(9.807 2.223)" fill="#0a405b"/>
        <path id="Path_115" data-name="Path 115" d="M8.7,1.753q-.1.521-.3,1.423-.343,1.5-.54,2.674a14,14,0,0,0-.2,2.318,2.747,2.747,0,0,0,.1.851,1.809,1.809,0,0,0,.3.521A2.424,2.424,0,0,1,7.285,10a2.31,2.31,0,0,1-.807.159,1.29,1.29,0,0,1-1.1-.445,2.3,2.3,0,0,1-.337-1.385V8.282L4.9,8.219A3.323,3.323,0,0,1,3.868,9.648a2.383,2.383,0,0,1-1.493.514,2.167,2.167,0,0,1-1.251-.368A2.354,2.354,0,0,1,.292,8.746,3.94,3.94,0,0,1,0,7.177,4.55,4.55,0,0,1,.641,4.764,4.356,4.356,0,0,1,2.433,3.125a5.739,5.739,0,0,1,2.636-.584,4.551,4.551,0,0,1,.864.076l.114-.673L5.335.927A5.594,5.594,0,0,1,6.529.254,3.131,3.131,0,0,1,7.711,0a1.291,1.291,0,0,1,.838.21A.875.875,0,0,1,8.791.9,4.931,4.931,0,0,1,8.7,1.753ZM5.729,3.722A4.068,4.068,0,0,0,4.1,4.23,3.33,3.33,0,0,0,2.941,5.3a2.477,2.477,0,0,0-.426,1.385,1.538,1.538,0,0,0,.26.959.87.87,0,0,0,.73.337,1.483,1.483,0,0,0,.959-.387,3.05,3.05,0,0,0,.781-1.061Q5.4,5.615,5.729,3.722Z" transform="translate(19.245 0)" fill="#0a405b"/>
        <path id="Path_116" data-name="Path 116" d="M6.86,3.36a3.77,3.77,0,0,1-1.709.978,9.144,9.144,0,0,1-2.636.337v.114a2.594,2.594,0,0,0,.3,1.353.928.928,0,0,0,.832.489,1.359,1.359,0,0,0,1.067-.476A1.926,1.926,0,0,0,5.158,4.9a2.023,2.023,0,0,1,1.162.279A.93.93,0,0,1,6.72,6a1.36,1.36,0,0,1-.445.978,3.082,3.082,0,0,1-1.213.7,5.264,5.264,0,0,1-1.7.26A3.468,3.468,0,0,1,.889,7.1,3.056,3.056,0,0,1,0,4.764,4.681,4.681,0,0,1,.648,2.318,4.562,4.562,0,0,1,2.439.616,5.323,5.323,0,0,1,5.005,0a2.961,2.961,0,0,1,1.81.483,1.6,1.6,0,0,1,.641,1.359A2.154,2.154,0,0,1,6.86,3.36ZM3.411,2.122a3.767,3.767,0,0,0-.769,1.6A4.4,4.4,0,0,0,4.58,3.2a1.25,1.25,0,0,0,.68-1.093.578.578,0,0,0-.191-.451.712.712,0,0,0-.5-.171A1.534,1.534,0,0,0,3.411,2.122Z" transform="translate(28.836 2.223)" fill="#0a405b"/>
      </g>
    </g>
  </g>
  <g id="Group_85" data-name="Group 85" transform="translate(54.58 0)">
    <g id="Group_71" data-name="Group 71">
      <path id="Path_123" data-name="Path 123" d="M6069.488,2407.217c1.186-4.7,5.033-6.836,10.6-7.395,11.046-1.108,67.015-1.076,73.933-.412,4.68.449,6.273,1.985,7.223,6.053,1,4.277.555,9.5.007,13.81-1.027,8.084-4.952,8.836-8.4,9.063-1.113.073-2.339.139-3.647.2a15.212,15.212,0,0,1-.761,1.965,9.591,9.591,0,0,1-4.246,4.748.39.39,0,0,1-.566-.436,10.929,10.929,0,0,0-.448-6.082c-10.9.245-58.374.03-65.622-.825-3.876-.458-6.264-1.7-7.325-4.908A31.746,31.746,0,0,1,6069.488,2407.217Z" transform="translate(-6062.755 -2398.177)" fill="#ff5671"/>
      <g id="Group_60" data-name="Group 60" transform="translate(6.072 2.793)">
        <path id="Path_124" data-name="Path 124" d="M6079.188,2418.639a15.936,15.936,0,0,0-3.588,4.418c-2.03,3.873-.962,11.645.019,15.638,1.534,6.253,8.789,6.01,14.15,6.269,6.4.309,49.811.623,56.186.147a2.3,2.3,0,0,1,2.566,1.9,8.4,8.4,0,0,1,.338,2.306c.021,1.218.009,1.916,1.023.5a18.065,18.065,0,0,0,2.01-4.24c.262-.551.893-.643,1.462-.732,5.087-.8,7.633-.029,9.787-2.869a16.99,16.99,0,0,0,2.38-6.4c-.053.465-.108.924-.165,1.372-1.026,8.084-4.952,8.836-8.4,9.063-1.112.073-2.339.139-3.647.2a15.27,15.27,0,0,1-.761,1.966,9.59,9.59,0,0,1-4.246,4.748.39.39,0,0,1-.566-.436,10.924,10.924,0,0,0-.448-6.082c-10.9.245-58.374.03-65.622-.825-3.877-.458-6.265-1.7-7.325-4.908a31.746,31.746,0,0,1-.747-15.778A8.76,8.76,0,0,1,6079.188,2418.639Z" transform="translate(-6072.934 -2418.639)" fill="#e23f58"/>
      </g>
      <g id="Group_61" data-name="Group 61" transform="translate(81.896 2.218)">
        <path id="Path_125" data-name="Path 125" d="M6086.111,2413.543c3.8-.927,9.759-.7,12.806,2.06,3.83,3.463,2.437,11.739,1.565,16.132-.034.172-.277.117-.288-.039-.169-2.43-.4-4.86-.583-7.291-.2-2.6-.112-5.472-1.97-7.526-2.5-2.769-8.284-1.878-11.53-3.167a.088.088,0,0,1,0-.168Z" transform="translate(-6086.049 -2413.053)" fill="#ff8098"/>
      </g>
      <g id="Group_62" data-name="Group 62" transform="translate(78.268 2.289)">
        <path id="Path_126" data-name="Path 126" d="M6248.428,2414.276c-.328.367-1.087.346-1.543.351-.323,0-1.047.04-1.047-.476,0-.487.771-.409,1.047-.4.472.01,1.266-.007,1.555.44a.074.074,0,0,1-.012.089Z" transform="translate(-6245.837 -2413.739)" fill="#ff8098"/>
      </g>
      <g id="Group_63" data-name="Group 63" transform="translate(10.101 21.11)">
        <path id="Path_127" data-name="Path 127" d="M6850.038,2602.739c-1.729,1.183-4.916.139-6.639-.677a5.472,5.472,0,0,1-2.969-5.107.176.176,0,0,1,.325-.088c.953,1.586,1.507,3.283,3.211,4.224,1.8.992,4.1,1.03,6.057,1.531a.065.065,0,0,1,.015.117Z" transform="translate(-6840.429 -2596.782)" fill="#ff8098"/>
      </g>
      <g id="Group_64" data-name="Group 64" transform="translate(20.594 26.602)">
        <path id="Path_128" data-name="Path 128" d="M6810.6,2650.69c-.133.337-.6.358-.907.385a5.317,5.317,0,0,1-.805-.031c-.316-.022-.459-.243-.689-.421a.116.116,0,0,1,.027-.21c.215-.064.421-.249.662-.222.323.036.648.043.969.084.123.015.853.136.743.414Z" transform="translate(-6808.146 -2650.189)" fill="#ff8098"/>
      </g>
      <g id="Group_65" data-name="Group 65" transform="translate(0 2.123)">
        <path id="Path_129" data-name="Path 129" d="M6980.44,2415.315c-.783.371-2.187-.161-2.89-.5a7.326,7.326,0,0,1-3-2.385.208.208,0,0,1,.178-.311,6.549,6.549,0,0,1,3.448,1.061,5.592,5.592,0,0,1,2.292,2.069.057.057,0,0,1-.026.063Z" transform="translate(-6974.516 -2412.123)" fill="#fff"/>
      </g>
      <g id="Group_66" data-name="Group 66" transform="translate(0.593 7.052)">
        <path id="Path_130" data-name="Path 130" d="M6992.359,2460.788a2.154,2.154,0,0,1-1.777.6,2.571,2.571,0,0,1-2.087-.557.131.131,0,0,1,0-.182,2.542,2.542,0,0,1,2.087-.584,2.139,2.139,0,0,1,1.777.594.1.1,0,0,1,0,.13Z" transform="translate(-6988.458 -2460.059)" fill="#fff"/>
      </g>
      <g id="Group_67" data-name="Group 67" transform="translate(4.545)">
        <path id="Path_131" data-name="Path 131" d="M6963.317,2394.532c-.588.227-1.268-.461-1.62-.846a4.043,4.043,0,0,1-.948-1.984.181.181,0,0,1,.263-.2c.342.159.669.343,1.009.506a3.567,3.567,0,0,1,.963.944c.239.273.963,1.339.333,1.583Z" transform="translate(-6960.744 -2391.479)" fill="#fff"/>
      </g>
      <g id="Group_68" data-name="Group 68" transform="translate(96.219 30.131)">
        <path id="Path_132" data-name="Path 132" d="M6070.577,2687.767c-.614-.012-1.149-.667-1.524-1.089a7.185,7.185,0,0,1-1.316-1.952c-.045-.1.03-.257.161-.209a4.421,4.421,0,0,1,1.931,1.385c.4.454,1,1.142.845,1.791a.1.1,0,0,1-.1.074Z" transform="translate(-6067.724 -2684.508)" fill="#fff"/>
      </g>
      <g id="Group_69" data-name="Group 69" transform="translate(97.229 28.435)">
        <path id="Path_133" data-name="Path 133" d="M6062.224,2669.572c-.393.222-.973-.018-1.352-.175a2.316,2.316,0,0,1-1.4-1.074.159.159,0,0,1,.093-.229,1.778,1.778,0,0,1,1.526.289c.4.215,1.08.6,1.174,1.086a.093.093,0,0,1-.042.1Z" transform="translate(-6059.453 -2668.018)" fill="#fff"/>
      </g>
      <g id="Group_70" data-name="Group 70" transform="translate(94.371 31.003)">
        <path id="Path_134" data-name="Path 134" d="M6102.579,2695.621c-.476-.1-.666-.635-.837-1.032a2.243,2.243,0,0,1-.219-.707,1.954,1.954,0,0,1,.173-.8.125.125,0,0,1,.207-.054c.144.171.311.3.448.475a2.329,2.329,0,0,1,.284.712c.13.417.373.914.131,1.333a.168.168,0,0,1-.187.076Z" transform="translate(-6101.52 -2692.986)" fill="#fff"/>
      </g>
    </g>
    <g id="Group_8" data-name="Group 8" transform="translate(17.753 8.281)">
      <path id="Path_51" data-name="Path 51" d="M1108.125,461.1V471.3h-2.483v-4.2h-3.862v4.2H1099.3V461.1h2.483V465.1h3.862V461.1Z" transform="translate(-1099.297 -460.551)" fill="#fff"/>
      <path id="Path_52" data-name="Path 52" d="M1146.524,472.186a3.522,3.522,0,0,1,1.285-1.452,3.357,3.357,0,0,1,1.815-.508,3.117,3.117,0,0,1,1.5.349,2.567,2.567,0,0,1,.994.915v-1.147h2.483v8.1h-2.483V477.3a2.679,2.679,0,0,1-1.009.915,3.114,3.114,0,0,1-1.5.349,3.293,3.293,0,0,1-1.8-.515,3.561,3.561,0,0,1-1.285-1.467,5.346,5.346,0,0,1,0-4.392Zm5.082.741a1.745,1.745,0,0,0-2.512-.007,2,2,0,0,0-.515,1.459,2.055,2.055,0,0,0,.515,1.474,1.729,1.729,0,0,0,2.512.007,2.344,2.344,0,0,0,0-2.933Z" transform="translate(-1135.932 -467.699)" fill="#fff"/>
      <path id="Path_53" data-name="Path 53" d="M1196.362,458.553V469.3h-2.483V458.553Z" transform="translate(-1173.407 -458.553)" fill="#fff"/>
      <path id="Path_54" data-name="Path 54" d="M1211.86,472.186a3.521,3.521,0,0,1,1.285-1.452,3.357,3.357,0,0,1,1.815-.508,3.117,3.117,0,0,1,1.5.349,2.565,2.565,0,0,1,.994.915v-1.147h2.483v8.1h-2.483V477.3a2.679,2.679,0,0,1-1.009.915,3.116,3.116,0,0,1-1.5.349,3.294,3.294,0,0,1-1.8-.515,3.56,3.56,0,0,1-1.285-1.467,5.346,5.346,0,0,1,0-4.392Zm5.082.741a1.745,1.745,0,0,0-2.512-.007,2,2,0,0,0-.515,1.459,2.055,2.055,0,0,0,.515,1.474,1.729,1.729,0,0,0,2.512.007,2.344,2.344,0,0,0,0-2.933Z" transform="translate(-1187.126 -467.699)" fill="#fff"/>
      <path id="Path_55" data-name="Path 55" d="M1277.932,461.1v6.94a3.28,3.28,0,0,1-.908,2.483,3.383,3.383,0,0,1-2.446.871,3.618,3.618,0,0,1-2.585-.915,3.394,3.394,0,0,1-.973-2.6h2.468a1.523,1.523,0,0,0,.261.966.91.91,0,0,0,.755.327.864.864,0,0,0,.7-.29,1.267,1.267,0,0,0,.247-.842V461.1Z" transform="translate(-1233.851 -460.551)" fill="#fff"/>
      <path id="Path_56" data-name="Path 56" d="M1310.4,472.186a3.521,3.521,0,0,1,1.285-1.452,3.356,3.356,0,0,1,1.815-.508,3.119,3.119,0,0,1,1.5.349,2.567,2.567,0,0,1,.994.915v-1.147h2.483v8.1H1316V477.3a2.682,2.682,0,0,1-1.009.915,3.116,3.116,0,0,1-1.5.349,3.294,3.294,0,0,1-1.8-.515,3.559,3.559,0,0,1-1.285-1.467,5.346,5.346,0,0,1,0-4.392Zm5.082.741a1.745,1.745,0,0,0-2.512-.007,2,2,0,0,0-.515,1.459,2.055,2.055,0,0,0,.515,1.474,1.729,1.729,0,0,0,2.512.007,2.343,2.343,0,0,0,0-2.933Z" transform="translate(-1264.336 -467.699)" fill="#fff"/>
      <path id="Path_57" data-name="Path 57" d="M1361.327,470.745a2.809,2.809,0,0,1,1.452-.385v2.628h-.682a2.093,2.093,0,0,0-1.394.4,1.773,1.773,0,0,0-.465,1.4v3.761h-2.483v-8.1h2.483v1.35A3.28,3.28,0,0,1,1361.327,470.745Z" transform="translate(-1301.812 -467.804)" fill="#fff"/>
      <path id="Path_58" data-name="Path 58" d="M1391.431,470.762l-5.082,11.95h-2.672l1.859-4.124-3.3-7.826h2.773l1.873,5.068,1.858-5.068Z" transform="translate(-1320.997 -468.119)" fill="#fff"/>
    </g>
  </g>
  <g id="Group_84" data-name="Group 84" transform="translate(144.455 18.933)">
    <g id="Group_80" data-name="Group 80" transform="translate(26.371 0) rotate(31)">
      <path id="Path_135" data-name="Path 135" d="M2.306,14.215c3.261-5.429,9.371-5.837,15.071-5.789C24.9,8.489,31.12,5.675,37.84,2.654,42.367.62,46.928-.731,51.906.426A16.686,16.686,0,0,1,64.594,19.109,13.766,13.766,0,0,1,61.709,25.8c-2.855,4.843-8.063,7.923-13.32,10.028a12.58,12.58,0,0,1-1.977,8.939,12.946,12.946,0,0,1-6.994,5.021c-2.965,1-2.82-.608-2.011-2.9a18.087,18.087,0,0,0,.862-4.663,12.479,12.479,0,0,0-.2-3.25,72.614,72.614,0,0,1-16.646,1.665C12.577,40.486,3.869,37.651.889,28.494A17.586,17.586,0,0,1,2.306,14.215Z" transform="translate(0 1.115)" fill="#ef70e9"/>
      <path id="Path_136" data-name="Path 136" d="M0,17.952c-.031-3.594,1.5-7.337,4.393-9.179C9.021,5.827,15.569,7.6,20.68,6.8,27.069,5.8,31.926.177,38.543,0c4.507-.118,9.476,2.55,10.916,7.381,1.007,3.383-.494,6.313-2.7,8.552-2.974,3.69-7.536,5.889-11.62,7.785a52.956,52.956,0,0,1-16.167,4.459c-4.759.572-9.916.7-14.446-1.433C1.258,25.211.031,21.482,0,17.952Z" transform="translate(8.763 5.578)" fill="#ff85ff"/>
      <path id="Path_137" data-name="Path 137" d="M21.428,33.243C12.577,33.1,3.869,30.262.889,21.105A17.585,17.585,0,0,1,2.306,6.826,10.705,10.705,0,0,1,8.023,2.175,13.779,13.779,0,0,0,3.479,7.412a16.706,16.706,0,0,0,4.3,20.517c5.073,3.98,18.172,4.014,25.8,2.5,4.779-.945,6.194-1.183,6.632.985a17.819,17.819,0,0,1-.824,8.944c5.219-1.7,6.792-6.11,7.156-11.757.083-1.288,2.157-2.2,3.7-2.783C60.081,22.095,67.262,11.347,61.951,0a16.923,16.923,0,0,1,2.643,11.721,13.766,13.766,0,0,1-2.885,6.686c-2.855,4.843-8.063,7.923-13.32,10.028a12.58,12.58,0,0,1-1.977,8.939,12.947,12.947,0,0,1-6.994,5.021c-2.965,1-2.819-.608-2.011-2.9a18.083,18.083,0,0,0,.862-4.663,12.474,12.474,0,0,0-.2-3.25A72.615,72.615,0,0,1,21.428,33.243Z" transform="translate(0 8.504)" fill="#d354d3"/>
      <g id="Group_72" data-name="Group 72" transform="translate(59.419 3.037)">
        <path id="Path_138" data-name="Path 138" d="M.109.006c4.8,2.2,7.155,8.727,7.613,13.582.479,5.074-1.353,11.46-6.1,14.042a.123.123,0,0,1-.148-.192C4.9,23.249,7,19.142,6.635,13.588a19.631,19.631,0,0,0-2.148-7.4C3.328,3.87,1.5,2.165.013.1c-.046-.063.039-.122.1-.1Z" transform="translate(0 0)" fill="#fff"/>
      </g>
      <g id="Group_73" data-name="Group 73" transform="translate(58.526 31.331)">
        <path id="Path_139" data-name="Path 139" d="M1.753.048l0,0a.182.182,0,0,1,.027.212,2.549,2.549,0,0,1-.725.806,5.964,5.964,0,0,1-.5.382A.71.71,0,0,1,.07,1.52.07.07,0,0,1,0,1.431c.04-.124.036-.254.135-.355A3.907,3.907,0,0,1,.626.691,7,7,0,0,1,1.545.024a.174.174,0,0,1,.176,0l.032.024Z" transform="translate(0 0)" fill="#fff"/>
      </g>
      <g id="Group_74" data-name="Group 74" transform="translate(18.362 42.004)">
        <path id="Path_140" data-name="Path 140" d="M17.492.124A25.382,25.382,0,0,1,.081,1.129C-.037,1.089-.025.895.111.9c2.771.161,5.584.232,8.357.121C11.493.9,14.45.175,17.459,0a.067.067,0,0,1,.033.124Z" transform="translate(0 0)" fill="#fff"/>
      </g>
      <g id="Group_75" data-name="Group 75" transform="translate(0.507 7.658)">
        <path id="Path_141" data-name="Path 141" d="M12.43.426c-3,.6-5.708.756-8.349,2.493-1.756,1.155-2.7,2.9-3.9,4.541a.1.1,0,0,1-.176-.048C-.128,5.391,1.726,3.52,3.233,2.425,5.773.58,9.322-.578,12.43.3a.067.067,0,0,1,0,.129Z" transform="translate(0 0)" fill="#fff"/>
      </g>
      <g id="Group_76" data-name="Group 76" transform="translate(13.717 7.747)">
        <path id="Path_142" data-name="Path 142" d="M2.24.568c-.258.266-.719.226-1.059.225A1.467,1.467,0,0,1,.036.389a.127.127,0,0,1,.025-.2A1.742,1.742,0,0,1,1.283.044c.334.054.8.108.967.448a.065.065,0,0,1-.01.076Z" transform="translate(0 0)" fill="#fff"/>
      </g>
      <g id="Group_77" data-name="Group 77" transform="translate(0.092 31.749)">
        <path id="Path_143" data-name="Path 143" d="M4.933,6.322C2.1,6.335-.015,2.655,0,.155A.159.159,0,0,1,.294.076C1.64,2.385,2.63,4.714,4.958,6.231a.049.049,0,0,1-.025.091Z" transform="translate(0 0)" fill="#fff"/>
      </g>
      <g id="Group_78" data-name="Group 78" transform="translate(34.174 0)">
        <path id="Path_144" data-name="Path 144" d="M7.908.2C6.663.869,5.3,1.331,4.017,1.91A13.274,13.274,0,0,1,.1,3.209c-.116.014-.125-.142-.052-.2C2.053,1.521,5.266-.211,7.859.021c.09.008.142.133.05.183Z" transform="translate(0)" fill="#fff"/>
      </g>
      <g id="Group_79" data-name="Group 79" transform="translate(46.379 39.839)">
        <path id="Path_145" data-name="Path 145" d="M3.982.09a6.924,6.924,0,0,1-.692,4.6C2.653,6.127,1.63,7.979.2,8.742A.131.131,0,0,1,0,8.6,14.642,14.642,0,0,1,1.989,5.224,16.812,16.812,0,0,0,3.739.09a.126.126,0,0,1,.242,0Z" transform="translate(0 0)" fill="#fff"/>
      </g>
    </g>
    <g id="Group_83" data-name="Group 83" transform="matrix(0.946, 0.326, -0.326, 0.946, 23.102, 20.264)">
      <g id="Group_81" data-name="Group 81" transform="translate(0 0)">
        <path id="Path_146" data-name="Path 146" d="M7.943,9.14c-.075,2.022-3.265,1.962-3.28.045L4.648,7.013l-1.363.015L3.3,9.244c0,2.022-3.235,1.962-3.265.03C-.025,6.7-.01,4.257.095,1.562.17-.4,3.4-.385,3.36,1.636L3.315,3.658l1.363-.015.045-2.187C4.768-.505,7.943-.49,8,1.532,8.063,4.063,8.033,6.624,7.943,9.14Z" transform="translate(0 1.134)" fill="#fff"/>
        <path id="Path_147" data-name="Path 147" d="M3.25,10.589C3.205,12.535,0,12.535,0,10.529,0,8.657.015,6.785.075,5.092c.06-1.962,3.25-1.962,3.25.045C3.325,6.979,3.31,8.806,3.25,10.589ZM1.767,3.22a1.62,1.62,0,0,1-1.6-1.632A1.592,1.592,0,0,1,1.767,0h.015A1.6,1.6,0,0,1,3.4,1.588,1.633,1.633,0,0,1,1.782,3.22Z" transform="translate(8.511)" fill="#fff"/>
      </g>
      <g id="Group_82" data-name="Group 82" transform="translate(16.2 1.055)">
        <path id="Path_148" data-name="Path 148" d="M8.381,6.426c-.075.689-.135,1.528-.27,2.5-.21,1.782-3.49,2.726-5.526,1.6C-.9,8.672-.784,2.7,2.481.63a4.271,4.271,0,0,1,5.436.824C9.19,2.936,7.063,5.108,5.626,3.64,3.424,1.2,2.106,8.7,5.161,7.773l.075-.6c-1.947-.1-1.662-3.145.135-2.8C7.3,4.778,8.516,4.658,8.381,6.426Z" transform="translate(0 0)" fill="#fff"/>
        <path id="Path_149" data-name="Path 149" d="M3.965,5.27c.959-.06.689-2.067.569-3.655a1.6,1.6,0,0,1,3.175-.254c.449,3.909-.18,7.174-3.8,7.174C.655,8.535-.318,5.18.086,1.391a1.589,1.589,0,0,1,3.16.27C3.157,3.113,3.157,5.3,3.965,5.27Z" transform="translate(8.894 2.579)" fill="#fff"/>
        <path id="Path_150" data-name="Path 150" d="M4.593,4.7a16.523,16.523,0,0,0,.344-3.22,1.621,1.621,0,0,1,3.235.09C8.142,7.1,5.821,14.108.939,12.027c-1.857-.794-.689-3.8,1.168-3.07,1.018.389,1.288-.554,1.318-1.078A6.544,6.544,0,0,1,.085,1.5C.22-.569,3.38-.4,3.29,1.6A3.715,3.715,0,0,0,4.593,4.7Z" transform="translate(17.042 2.576)" fill="#fff"/>
        <path id="Path_151" data-name="Path 151" d="M3.307,3.123c-.225.629,4.3.36,3.31,3.624C5.958,8.919,3.367,9.2,1.18,8.47-.647,7.856.1,5.25,1.869,5.834c1,.314,1.378.374,1.468.135.285-.659-4.193-.12-3.19-3.714C.731.128,2.888-.427,5.179.307A1.511,1.511,0,0,1,4.25,3.183C3.951,3.078,3.427,2.823,3.307,3.123Z" transform="translate(25.487 2.494)" fill="#fff"/>
      </g>
    </g>
  </g>
</svg>
