<svg xmlns="http://www.w3.org/2000/svg" width="170.986" height="164.2" viewBox="0 0 170.986 164.2">
  <g id="Group_2845" data-name="Group 2845" transform="translate(-407 -107.415)">
    <g id="Group_426" data-name="Group 426" transform="translate(407 236.191)">
      <path id="Path_426" data-name="Path 426" d="M994.795,833.647v24.745h-6.027V848.2h-9.376v10.187h-6.027V833.647h6.027v9.694h9.376v-9.694Z" transform="translate(-973.364 -832.308)" fill="#fff"/>
      <path id="Path_427" data-name="Path 427" d="M1016.313,846.563a8.549,8.549,0,0,1,3.12-3.525,8.147,8.147,0,0,1,4.406-1.234,7.575,7.575,0,0,1,3.648.846,6.237,6.237,0,0,1,2.414,2.221v-2.785h6.028v19.669H1029.9V858.97a6.514,6.514,0,0,1-2.449,2.22,7.568,7.568,0,0,1-3.648.846,7.994,7.994,0,0,1-4.371-1.251,8.644,8.644,0,0,1-3.12-3.56,12.984,12.984,0,0,1,0-10.662Zm12.337,1.8a4.237,4.237,0,0,0-6.1-.018,4.865,4.865,0,0,0-1.251,3.543,4.991,4.991,0,0,0,1.251,3.578,4.2,4.2,0,0,0,6.1.018,5.691,5.691,0,0,0,0-7.12Z" transform="translate(-990.6 -835.671)" fill="#fff"/>
      <path id="Path_428" data-name="Path 428" d="M1063.957,831.368v26.084h-6.027V831.368Z" transform="translate(-1008.231 -831.368)" fill="#fff"/>
      <path id="Path_429" data-name="Path 429" d="M1074.729,846.563a8.546,8.546,0,0,1,3.119-3.525,8.147,8.147,0,0,1,4.406-1.234,7.573,7.573,0,0,1,3.648.846,6.231,6.231,0,0,1,2.414,2.221v-2.785h6.028v19.669h-6.028V858.97a6.516,6.516,0,0,1-2.449,2.22,7.568,7.568,0,0,1-3.648.846,7.994,7.994,0,0,1-4.371-1.251,8.641,8.641,0,0,1-3.119-3.56,12.978,12.978,0,0,1,0-10.662Zm12.336,1.8a4.237,4.237,0,0,0-6.1-.018,4.866,4.866,0,0,0-1.251,3.543,4.991,4.991,0,0,0,1.251,3.578,4.2,4.2,0,0,0,6.1.018,5.69,5.69,0,0,0,0-7.12Z" transform="translate(-1014.685 -835.671)" fill="#fff"/>
      <path id="Path_430" data-name="Path 430" d="M1143.679,833.647V850.5a7.968,7.968,0,0,1-2.2,6.027,8.218,8.218,0,0,1-5.939,2.115,8.785,8.785,0,0,1-6.274-2.221,8.238,8.238,0,0,1-2.362-6.309h5.992a3.7,3.7,0,0,0,.634,2.344,2.21,2.21,0,0,0,1.833.793,2.1,2.1,0,0,0,1.692-.7,3.079,3.079,0,0,0,.6-2.045V833.647Z" transform="translate(-1036.668 -832.308)" fill="#fff"/>
      <path id="Path_431" data-name="Path 431" d="M1162.833,846.563a8.542,8.542,0,0,1,3.119-3.525,8.146,8.146,0,0,1,4.406-1.234,7.577,7.577,0,0,1,3.648.846,6.238,6.238,0,0,1,2.414,2.221v-2.785h6.027v19.669h-6.027V858.97a6.517,6.517,0,0,1-2.45,2.22,7.565,7.565,0,0,1-3.648.846,7.994,7.994,0,0,1-4.37-1.251,8.636,8.636,0,0,1-3.119-3.56,12.978,12.978,0,0,1,0-10.662Zm12.336,1.8a4.236,4.236,0,0,0-6.1-.018,4.866,4.866,0,0,0-1.252,3.543,4.992,4.992,0,0,0,1.252,3.578,4.2,4.2,0,0,0,6.1.018,5.688,5.688,0,0,0,0-7.12Z" transform="translate(-1051.01 -835.671)" fill="#fff"/>
      <path id="Path_432" data-name="Path 432" d="M1213.12,842.858a6.821,6.821,0,0,1,3.525-.934v6.38h-1.657a5.08,5.08,0,0,0-3.384.969,4.306,4.306,0,0,0-1.128,3.4V861.8h-6.027V842.136h6.027v3.278A7.965,7.965,0,0,1,1213.12,842.858Z" transform="translate(-1068.641 -835.72)" fill="#fff"/>
      <path id="Path_433" data-name="Path 433" d="M1248.653,842.284l-12.337,29.009h-6.486l4.512-10.01-8-19h6.733l4.547,12.3,4.512-12.3Z" transform="translate(-1077.667 -835.869)" fill="#fff"/>
    </g>
    <circle id="Ellipse_99" data-name="Ellipse 99" cx="24.223" cy="24.223" r="24.223" transform="translate(502.406 174.629)" fill="#fe5d67"/>
    <path id="Path_434" data-name="Path 434" d="M1129.932,706.88v43a7.447,7.447,0,0,1-7.447,7.447h-31.649a7.447,7.447,0,0,1-7.447-7.447v-43a23.271,23.271,0,0,1,23.271-23.271h0A23.271,23.271,0,0,1,1129.932,706.88Z" transform="translate(-611.728 -534.256)" fill="#9f4dff"/>
    <path id="Path_435" data-name="Path 435" d="M1135.7,751.889a24.224,24.224,0,0,0,13.781,21.861,7.411,7.411,0,0,0,2.017-5.085V729.174A24.231,24.231,0,0,0,1135.7,751.889Z" transform="translate(-633.297 -553.042)" fill="#00d0ff"/>
    <path id="Path_436" data-name="Path 436" d="M1034.2,717.161l-16.6,28.758a14.8,14.8,0,0,0,12.814,22.195h33.208a14.8,14.8,0,0,0,12.814-22.195l-16.6-28.758A14.8,14.8,0,0,0,1034.2,717.161Z" transform="translate(-583.773 -545.039)" fill="#ffca2f"/>
    <g id="Group_427" data-name="Group 427" transform="translate(528.615 189.82)">
      <path id="Path_437" data-name="Path 437" d="M1180.608,759.009a6.913,6.913,0,0,0,11.751-5.6,1.049,1.049,0,0,0-2.086.212,4.815,4.815,0,0,1-8.186,3.9,1.048,1.048,0,0,0-1.479,1.487Z" transform="translate(-1180.299 -752.465)"/>
    </g>
    <circle id="Ellipse_100" data-name="Ellipse 100" cx="2.938" cy="2.938" r="2.938" transform="translate(533.751 181.452)"/>
    <circle id="Ellipse_101" data-name="Ellipse 101" cx="2.938" cy="2.938" r="2.938" transform="translate(523.771 185.909)"/>
    <circle id="Ellipse_102" data-name="Ellipse 102" cx="2.814" cy="2.814" r="2.814" transform="translate(456.506 180.257)"/>
    <circle id="Ellipse_103" data-name="Ellipse 103" cx="2.814" cy="2.814" r="2.814" transform="translate(448.533 179.02)"/>
    <g id="Group_428" data-name="Group 428" transform="translate(446.642 187.888)">
      <path id="Path_438" data-name="Path 438" d="M1048.946,760.451l-.189.987a9.779,9.779,0,0,0,11.444-7.764,1.005,1.005,0,0,0-.8-1.176l-17.235-3.3a1,1,0,0,0-1.175.8,9.779,9.779,0,0,0,7.764,11.444l.189-.987.189-.986a7.773,7.773,0,0,1-6.309-7.621,7.822,7.822,0,0,1,.14-1.471l-.986-.189-.189.987,17.234,3.3.189-.987-.987-.189a7.759,7.759,0,0,1-9.092,6.168Z" transform="translate(-1040.817 -749.178)"/>
    </g>
    <path id="Path_439" data-name="Path 439" d="M1114.908,730.443a11.516,11.516,0,0,0,11.516-11.516h-23.033A11.516,11.516,0,0,0,1114.908,730.443Z" transform="translate(-619.974 -548.817)"/>
    <circle id="Ellipse_104" data-name="Ellipse 104" cx="3.218" cy="3.218" r="3.218" transform="translate(496.821 158.475)"/>
    <circle id="Ellipse_105" data-name="Ellipse 105" cx="3.218" cy="3.218" r="3.218" transform="translate(485.887 158.475)"/>
    <path id="Path_440" data-name="Path 440" d="M1104.383,748.018l-16.6-28.758a14.788,14.788,0,0,0-3.865-4.407,23.343,23.343,0,0,0-.524,4.91v43a7.447,7.447,0,0,0,7.447,7.447h.732A14.8,14.8,0,0,0,1104.383,748.018Z" transform="translate(-611.728 -547.137)" fill="#ff29e6"/>
    <path id="Path_441" data-name="Path 441" d="M1131.583,650.684l-15.943-4.972,3.026-23.949a1.511,1.511,0,0,0-1.325-1.69l-67.759-7.814a1.511,1.511,0,0,0-1.675,1.669l3.154,28.113-23.279,10.232a1.51,1.51,0,0,0-.852,1.77l7.745,29.179a1.487,1.487,0,0,0,.257.52l2.059-3.567-6.81-25.657,57.887-25.444v25.59a23.2,23.2,0,0,1,3.021.843V641.221l38.332,11.954-4.816,28.245a24.226,24.226,0,0,1,2.82,1.439l5.2-30.479A1.512,1.512,0,0,0,1131.583,650.684Zm-18.873-5.885-21.62-6.743v-11.3a1.511,1.511,0,0,0-2.119-1.383l-35.013,15.39-2.836-25.289,64.355,7.422Z" transform="translate(-588.429 -504.834)" fill="#fff"/>
  </g>
</svg>
