<svg id="Component_2_12" data-name="Component 2 – 12" xmlns="http://www.w3.org/2000/svg" width="148.272" height="142.388" viewBox="0 0 148.272 142.388">
  <g id="Group_426" data-name="Group 426" transform="translate(0 111.669)">
    <path id="Path_426" data-name="Path 426" d="M991.948,833.647V855.1h-5.227v-8.833h-8.131V855.1h-5.227V833.647h5.227v8.406h8.131v-8.406Z" transform="translate(-973.364 -832.486)" fill="#0a405b"/>
    <path id="Path_427" data-name="Path 427" d="M1016.161,845.93a7.413,7.413,0,0,1,2.705-3.057,7.065,7.065,0,0,1,3.821-1.07,6.569,6.569,0,0,1,3.163.733,5.409,5.409,0,0,1,2.094,1.926v-2.415h5.227V859.1h-5.227V856.69a5.649,5.649,0,0,1-2.124,1.925,6.563,6.563,0,0,1-3.163.733,6.933,6.933,0,0,1-3.791-1.085,7.5,7.5,0,0,1-2.705-3.087,11.259,11.259,0,0,1,0-9.246Zm10.7,1.559a3.674,3.674,0,0,0-5.288-.016,4.219,4.219,0,0,0-1.085,3.072,4.328,4.328,0,0,0,1.085,3.1,3.639,3.639,0,0,0,5.288.015,4.934,4.934,0,0,0,0-6.174Z" transform="translate(-993.864 -836.486)" fill="#0a405b"/>
    <path id="Path_428" data-name="Path 428" d="M1063.156,831.368v22.619h-5.227V831.368Z" transform="translate(-1014.832 -831.368)" fill="#0a405b"/>
    <path id="Path_429" data-name="Path 429" d="M1074.577,845.93a7.409,7.409,0,0,1,2.7-3.057,7.065,7.065,0,0,1,3.821-1.07,6.568,6.568,0,0,1,3.163.733,5.4,5.4,0,0,1,2.094,1.926v-2.415h5.227V859.1h-5.227V856.69a5.649,5.649,0,0,1-2.124,1.925,6.563,6.563,0,0,1-3.163.733,6.932,6.932,0,0,1-3.791-1.085,7.492,7.492,0,0,1-2.7-3.087,11.254,11.254,0,0,1,0-9.246Zm10.7,1.559a3.674,3.674,0,0,0-5.288-.016,4.22,4.22,0,0,0-1.085,3.072,4.328,4.328,0,0,0,1.085,3.1,3.639,3.639,0,0,0,5.288.015,4.934,4.934,0,0,0,0-6.174Z" transform="translate(-1022.509 -836.486)" fill="#0a405b"/>
    <path id="Path_430" data-name="Path 430" d="M1141.45,833.647v14.61a6.909,6.909,0,0,1-1.911,5.227,7.126,7.126,0,0,1-5.15,1.834,7.618,7.618,0,0,1-5.441-1.926,7.144,7.144,0,0,1-2.048-5.471h5.2a3.206,3.206,0,0,0,.55,2.033,1.917,1.917,0,0,0,1.589.688,1.82,1.82,0,0,0,1.467-.611,2.67,2.67,0,0,0,.52-1.773v-14.61Z" transform="translate(-1048.655 -832.486)" fill="#0a405b"/>
    <path id="Path_431" data-name="Path 431" d="M1162.68,845.93a7.407,7.407,0,0,1,2.705-3.057,7.063,7.063,0,0,1,3.821-1.07,6.571,6.571,0,0,1,3.164.733,5.41,5.41,0,0,1,2.094,1.926v-2.415h5.227V859.1h-5.227V856.69a5.65,5.65,0,0,1-2.125,1.925,6.56,6.56,0,0,1-3.164.733,6.932,6.932,0,0,1-3.79-1.085,7.489,7.489,0,0,1-2.705-3.087,11.254,11.254,0,0,1,0-9.246Zm10.7,1.559a3.674,3.674,0,0,0-5.287-.016,4.22,4.22,0,0,0-1.086,3.072,4.328,4.328,0,0,0,1.086,3.1,3.639,3.639,0,0,0,5.287.015,4.933,4.933,0,0,0,0-6.174Z" transform="translate(-1065.713 -836.486)" fill="#0a405b"/>
    <path id="Path_432" data-name="Path 432" d="M1211.968,842.734a5.915,5.915,0,0,1,3.057-.81v5.533h-1.437a4.405,4.405,0,0,0-2.934.84,3.734,3.734,0,0,0-.978,2.95v7.917h-5.227V842.107h5.227v2.842A6.907,6.907,0,0,1,1211.968,842.734Z" transform="translate(-1086.682 -836.544)" fill="#0a405b"/>
    <path id="Path_433" data-name="Path 433" d="M1245.688,842.284l-10.7,25.155h-5.624l3.912-8.68-6.938-16.475h5.838l3.943,10.667,3.912-10.667Z" transform="translate(-1097.417 -836.721)" fill="#0a405b"/>
  </g>
  <circle id="Ellipse_99" data-name="Ellipse 99" cx="21.005" cy="21.005" r="21.005" transform="translate(82.733 58.286)" fill="#fe5d67"/>
  <path id="Path_434" data-name="Path 434" d="M1123.75,703.789V741.08a6.457,6.457,0,0,1-6.458,6.457h-27.444a6.457,6.457,0,0,1-6.457-6.457V703.789a20.18,20.18,0,0,1,20.18-20.18h0A20.18,20.18,0,0,1,1123.75,703.789Z" transform="translate(-1027.318 -647.242)" fill="#9f4dff"/>
  <path id="Path_435" data-name="Path 435" d="M1135.7,748.872a21.006,21.006,0,0,0,11.95,18.957,6.426,6.426,0,0,0,1.749-4.409V729.174A21.012,21.012,0,0,0,1135.7,748.872Z" transform="translate(-1052.971 -669.586)" fill="#00d0ff"/>
  <path id="Path_436" data-name="Path 436" d="M1031.723,716.178l-14.4,24.938a12.831,12.831,0,0,0,11.112,19.247h28.8a12.831,12.831,0,0,0,11.112-19.247l-14.4-24.938A12.831,12.831,0,0,0,1031.723,716.178Z" transform="translate(-994.069 -660.067)" fill="#ffca2f"/>
  <g id="Group_427" data-name="Group 427" transform="translate(105.459 71.458)">
    <path id="Path_437" data-name="Path 437" d="M1180.567,758.14a5.995,5.995,0,0,0,10.19-4.858.909.909,0,0,0-1.809.184,4.175,4.175,0,0,1-7.1,3.384.909.909,0,0,0-1.282,1.289Z" transform="translate(-1180.299 -752.465)"/>
  </g>
  <circle id="Ellipse_100" data-name="Ellipse 100" cx="2.547" cy="2.547" r="2.547" transform="translate(109.913 64.202)"/>
  <circle id="Ellipse_101" data-name="Ellipse 101" cx="2.547" cy="2.547" r="2.547" transform="translate(101.259 68.067)"/>
  <circle id="Ellipse_102" data-name="Ellipse 102" cx="2.441" cy="2.441" r="2.441" transform="translate(42.93 63.166)"/>
  <circle id="Ellipse_103" data-name="Ellipse 103" cx="2.441" cy="2.441" r="2.441" transform="translate(36.016 62.093)"/>
  <g id="Group_428" data-name="Group 428" transform="translate(34.376 69.783)">
    <path id="Path_438" data-name="Path 438" d="M1047.866,758.953l-.164.856a8.48,8.48,0,0,0,9.923-6.733.872.872,0,0,0-.692-1.02l-14.945-2.863a.871.871,0,0,0-1.019.692,8.48,8.48,0,0,0,6.733,9.923l.164-.856.164-.855a6.74,6.74,0,0,1-5.471-6.609,6.784,6.784,0,0,1,.121-1.276l-.855-.164-.164.856,14.945,2.863.164-.856-.856-.164a6.729,6.729,0,0,1-7.885,5.349Z" transform="translate(-1040.817 -749.178)"/>
  </g>
  <path id="Path_439" data-name="Path 439" d="M1113.378,728.913a9.986,9.986,0,0,0,9.987-9.987h-19.973A9.986,9.986,0,0,0,1113.378,728.913Z" transform="translate(-1037.126 -664.56)"/>
  <circle id="Ellipse_104" data-name="Ellipse 104" cx="2.791" cy="2.791" r="2.791" transform="translate(77.889 44.278)"/>
  <circle id="Ellipse_105" data-name="Ellipse 105" cx="2.791" cy="2.791" r="2.791" transform="translate(68.408 44.278)"/>
  <path id="Path_440" data-name="Path 440" d="M1101.594,743.612l-14.4-24.938a12.824,12.824,0,0,0-3.352-3.822,20.24,20.24,0,0,0-.454,4.257V756.4a6.457,6.457,0,0,0,6.457,6.458h.635A12.831,12.831,0,0,0,1101.594,743.612Z" transform="translate(-1027.318 -662.562)" fill="#ff29e6"/>
  <path id="Path_441" data-name="Path 441" d="M1117.674,645.578l-13.825-4.311,2.624-20.768a1.31,1.31,0,0,0-1.149-1.466l-58.758-6.776a1.31,1.31,0,0,0-1.452,1.447l2.735,24.379-20.186,8.873a1.309,1.309,0,0,0-.739,1.535l6.716,25.3a1.291,1.291,0,0,0,.223.451l1.786-3.093-5.906-22.249,50.2-22.064v22.191a20.126,20.126,0,0,1,2.62.731V637.372l33.24,10.366-4.176,24.493a21,21,0,0,1,2.445,1.248l4.507-26.43A1.312,1.312,0,0,0,1117.674,645.578Zm-16.366-5.1-18.748-5.847v-9.8a1.31,1.31,0,0,0-1.837-1.2l-30.362,13.346-2.459-21.93,55.806,6.436Z" transform="translate(-999.607 -612.248)" fill="#0a405b"/>
</svg>
