<svg xmlns="http://www.w3.org/2000/svg" xmlns:xlink="http://www.w3.org/1999/xlink" width="150.215" height="119.219" viewBox="0 0 150.215 119.219">
  <defs>
    <clipPath id="clip-path">
      <path id="Path_16" data-name="Path 16" d="M915.2,410.94H861V370.732a20.8,20.8,0,0,1,8.055-16.437l16.7-12.949a20.8,20.8,0,0,1,25.486,0l16.7,12.949A20.8,20.8,0,0,1,936,370.732v19.41A20.8,20.8,0,0,1,915.2,410.94Z" transform="translate(-861 -336.985)" fill="rgba(0,0,0,0)"/>
    </clipPath>
  </defs>
  <g id="Group_3119" data-name="Group 3119" transform="translate(-406 -141.188)">
    <g id="Group_10" data-name="Group 10" transform="translate(442.697 141.188)">
      <path id="Path_9" data-name="Path 9" d="M915.2,410.94H861V370.732a20.8,20.8,0,0,1,8.055-16.437l16.7-12.949a20.8,20.8,0,0,1,25.486,0l16.7,12.949A20.8,20.8,0,0,1,936,370.732v19.41A20.8,20.8,0,0,1,915.2,410.94Z" transform="translate(-859.959 -335.944)" fill="rgba(255,255,255,0)"/>
      <g id="Group_5" data-name="Group 5" transform="translate(1.041 1.041)">
        <g id="Group_4" data-name="Group 4" clip-path="url(#clip-path)">
          <g id="Group_3" data-name="Group 3" transform="translate(-6.079 25.623)">
            <ellipse id="Ellipse_1" data-name="Ellipse 1" cx="16.876" cy="16.876" rx="16.876" ry="16.876" transform="translate(49.182 17.61)" fill="#fe5d67"/>
            <path id="Path_18" data-name="Path 18" d="M16.213,0h0A16.213,16.213,0,0,1,32.426,16.213V46.175a5.188,5.188,0,0,1-5.188,5.188H5.188A5.188,5.188,0,0,1,0,46.175V16.213A16.213,16.213,0,0,1,16.213,0Z" transform="translate(27.762)" fill="#9f4dff"/>
            <path id="Path_10" data-name="Path 10" d="M974.791,469.71a16.876,16.876,0,0,0,9.6,15.231A5.165,5.165,0,0,0,985.8,481.4V453.884A16.882,16.882,0,0,0,974.791,469.71Z" transform="translate(-925.609 -435.227)" fill="#00d0ff"/>
            <path id="Path_11" data-name="Path 11" d="M857.915,438.056l-11.568,20.036a10.309,10.309,0,0,0,8.928,15.464h23.136a10.309,10.309,0,0,0,8.928-15.464l-11.568-20.036A10.309,10.309,0,0,0,857.915,438.056Z" transform="translate(-844.951 -422.192)" fill="#ffca2f"/>
            <path id="Path_12" data-name="Path 12" d="M1026.615,485.022a4.835,4.835,0,0,1-3.4-1.4.73.73,0,0,1,1.03-1.036,3.355,3.355,0,0,0,5.7-2.719.73.73,0,0,1,1.453-.148,4.819,4.819,0,0,1-4.784,5.306Z" transform="translate(-955.555 -450.867)"/>
            <ellipse id="Ellipse_2" data-name="Ellipse 2" cx="2.047" cy="2.047" rx="2.047" ry="2.047" transform="translate(71.02 22.364)"/>
            <ellipse id="Ellipse_3" data-name="Ellipse 3" cx="2.047" cy="2.047" rx="2.047" ry="2.047" transform="translate(64.067 25.468)"/>
            <ellipse id="Ellipse_4" data-name="Ellipse 4" cx="1.961" cy="1.961" rx="1.961" ry="1.961" transform="translate(17.203 21.531)"/>
            <ellipse id="Ellipse_5" data-name="Ellipse 5" cx="1.961" cy="1.961" rx="1.961" ry="1.961" transform="translate(11.648 20.669)"/>
            <path id="Path_13" data-name="Path 13" d="M879.043,484.172h0a6.87,6.87,0,0,1-1.288-.123,6.808,6.808,0,0,1-5.409-7.973.7.7,0,0,1,.819-.556l12.007,2.3a.7.7,0,0,1,.556.819A6.817,6.817,0,0,1,879.043,484.172Zm-5.411-7.136a5.414,5.414,0,0,0,4.385,5.639,5.406,5.406,0,0,0,6.159-3.619Z" transform="translate(-861.892 -448.66)"/>
            <path id="Path_14" data-name="Path 14" d="M947.886,450.83a8.024,8.024,0,0,0,8.024-8.023H939.862A8.024,8.024,0,0,0,947.886,450.83Z" transform="translate(-903.911 -428.346)"/>
            <ellipse id="Ellipse_6" data-name="Ellipse 6" cx="2.242" cy="2.242" rx="2.242" ry="2.242" transform="translate(45.291 6.356)"/>
            <ellipse id="Ellipse_7" data-name="Ellipse 7" cx="2.242" cy="2.242" rx="2.242" ry="2.242" transform="translate(37.673 6.356)"/>
            <path id="Path_15" data-name="Path 15" d="M932.868,461.509,921.3,441.473a10.312,10.312,0,0,0-2.693-3.071,16.26,16.26,0,0,0-.365,3.421v29.962a5.188,5.188,0,0,0,5.188,5.188h.51A10.309,10.309,0,0,0,932.868,461.509Z" transform="translate(-890.48 -425.61)" fill="#ff29e6"/>
          </g>
        </g>
      </g>
      <path id="Path_17" data-name="Path 17" d="M913.495,410.274H858.251V369.024a21.985,21.985,0,0,1,8.458-17.26l16.7-12.949a21.839,21.839,0,0,1,26.763,0l16.7,12.949a21.986,21.986,0,0,1,8.458,17.26v19.41A21.864,21.864,0,0,1,913.495,410.274Zm-53.161-2.083h53.161a19.779,19.779,0,0,0,19.756-19.757v-19.41a19.889,19.889,0,0,0-7.651-15.614l-16.7-12.949a19.756,19.756,0,0,0-24.21,0l-16.7,12.949a19.89,19.89,0,0,0-7.651,15.614Z" transform="translate(-858.251 -334.236)" fill="#fff"/>
    </g>
    <g id="Group_11" data-name="Group 11" transform="translate(406 229.643)">
      <g id="Group_7" data-name="Group 7">
        <path id="Path_19" data-name="Path 19" d="M1156.371,601.567v21.538h-5.988v-8.646h-7.3v8.646h-5.988V601.567h5.988v8.1h7.3v-8.1Z" transform="translate(-1137.094 -600.498)" fill="#fff"/>
        <path id="Path_20" data-name="Path 20" d="M1192.328,616.149a7.321,7.321,0,0,1,2.627-3.055,6.724,6.724,0,0,1,3.712-1.069,6.274,6.274,0,0,1,3.056.7,5.09,5.09,0,0,1,1.986,1.894v-2.383h5.988v17.139h-5.988v-2.383a5.065,5.065,0,0,1-2,1.894,6.285,6.285,0,0,1-3.04.7,6.72,6.72,0,0,1-3.712-1.069,7.3,7.3,0,0,1-2.627-3.07,11.72,11.72,0,0,1,0-9.3Zm10.479,2.047a3.1,3.1,0,0,0-4.445-.015,3.639,3.639,0,0,0-.886,2.613,3.7,3.7,0,0,0,.886,2.612,2.9,2.9,0,0,0,2.23.962,2.938,2.938,0,0,0,2.215-.947,3.659,3.659,0,0,0,.9-2.627A3.617,3.617,0,0,0,1202.807,618.2Z" transform="translate(-1169.645 -606.771)" fill="#fff"/>
        <path id="Path_21" data-name="Path 21" d="M1251.7,598.9V621.5h-5.988V598.9Z" transform="translate(-1202.242 -598.896)" fill="#fff"/>
        <path id="Path_22" data-name="Path 22" d="M1267.745,616.149a7.32,7.32,0,0,1,2.627-3.055,6.726,6.726,0,0,1,3.712-1.069,6.273,6.273,0,0,1,3.055.7,5.091,5.091,0,0,1,1.986,1.894v-2.383h5.988v17.139h-5.988v-2.383a5.065,5.065,0,0,1-2,1.894,6.285,6.285,0,0,1-3.04.7,6.722,6.722,0,0,1-3.712-1.069,7.3,7.3,0,0,1-2.627-3.07,11.718,11.718,0,0,1,0-9.3Zm10.479,2.047a3.1,3.1,0,0,0-4.445-.015,3.64,3.64,0,0,0-.886,2.613,3.706,3.706,0,0,0,.886,2.612,2.9,2.9,0,0,0,2.23.962,2.939,2.939,0,0,0,2.215-.947,3.658,3.658,0,0,0,.9-2.627A3.617,3.617,0,0,0,1278.223,618.2Z" transform="translate(-1214.878 -606.771)" fill="#fff"/>
        <path id="Path_23" data-name="Path 23" d="M1348.237,601.567v14.268a6.773,6.773,0,0,1-7.393,7.485,8.207,8.207,0,0,1-5.85-2.047,7.688,7.688,0,0,1-2.184-5.9h5.927q.03,2.536,1.863,2.536,1.65,0,1.65-2.077V601.567Z" transform="translate(-1254.48 -600.498)" fill="#fff"/>
        <path id="Path_24" data-name="Path 24" d="M1378.809,616.149a7.323,7.323,0,0,1,2.627-3.055,6.728,6.728,0,0,1,3.712-1.069,6.273,6.273,0,0,1,3.055.7,5.09,5.09,0,0,1,1.986,1.894v-2.383h5.987v17.139h-5.987v-2.383a5.066,5.066,0,0,1-2,1.894,6.288,6.288,0,0,1-3.04.7,6.725,6.725,0,0,1-3.712-1.069,7.3,7.3,0,0,1-2.627-3.07,11.725,11.725,0,0,1,0-9.3Zm10.479,2.047a3.1,3.1,0,0,0-4.445-.015,3.642,3.642,0,0,0-.886,2.613,3.708,3.708,0,0,0,.886,2.612,2.9,2.9,0,0,0,2.23.962,2.938,2.938,0,0,0,2.215-.947,3.659,3.659,0,0,0,.9-2.627A3.617,3.617,0,0,0,1389.288,618.2Z" transform="translate(-1281.492 -606.771)" fill="#fff"/>
        <path id="Path_25" data-name="Path 25" d="M1440.627,613.033a5.933,5.933,0,0,1,3.086-.855v6.385h-1.681a4.581,4.581,0,0,0-2.9.764,3.24,3.24,0,0,0-.947,2.658v7.485h-5.988V612.331h5.988v3.024A7.8,7.8,0,0,1,1440.627,613.033Z" transform="translate(-1314.088 -606.862)" fill="#fff"/>
        <path id="Path_26" data-name="Path 26" d="M1481.975,612.56l-10.876,25.3h-6.507l4.094-8.89-7.027-16.406h6.66l3.605,9.715,3.482-9.715Z" transform="translate(-1331.76 -607.091)" fill="#fff"/>
      </g>
    </g>
  </g>
</svg>
