<svg xmlns="http://www.w3.org/2000/svg" xmlns:xlink="http://www.w3.org/1999/xlink" width="150.217" height="155.813" viewBox="0 0 150.217 155.813">
  <defs>
    <clipPath id="clip-path">
      <path id="Path_16" data-name="Path 16" d="M915.2,410.94H861V370.732a20.8,20.8,0,0,1,8.055-16.437l16.7-12.949a20.8,20.8,0,0,1,25.486,0l16.7,12.949A20.8,20.8,0,0,1,936,370.732v19.41A20.8,20.8,0,0,1,915.2,410.94Z" transform="translate(-861 -336.985)" fill="none"/>
    </clipPath>
  </defs>
  <g id="Group_3406" data-name="Group 3406" transform="translate(-406 -111.188)">
    <g id="Group_10" data-name="Group 10" transform="translate(443 111.188)">
      <path id="Path_9" data-name="Path 9" d="M915.2,410.94H861V370.732a20.8,20.8,0,0,1,8.055-16.437l16.7-12.949a20.8,20.8,0,0,1,25.486,0l16.7,12.949A20.8,20.8,0,0,1,936,370.732v19.41A20.8,20.8,0,0,1,915.2,410.94Z" transform="translate(-859.959 -335.944)" fill="none"/>
      <g id="Group_5" data-name="Group 5" transform="translate(1.041 1.041)">
        <g id="Group_4" data-name="Group 4" clip-path="url(#clip-path)">
          <g id="Group_3" data-name="Group 3" transform="translate(-6.079 25.623)">
            <ellipse id="Ellipse_1" data-name="Ellipse 1" cx="16.876" cy="16.876" rx="16.876" ry="16.876" transform="translate(49.182 17.61)" fill="#fe5d67"/>
            <path id="Path_18" data-name="Path 18" d="M16.213,0h0A16.213,16.213,0,0,1,32.426,16.213V46.175a5.188,5.188,0,0,1-5.188,5.188H5.188A5.188,5.188,0,0,1,0,46.175V16.213A16.213,16.213,0,0,1,16.213,0Z" transform="translate(27.762)" fill="#9f4dff"/>
            <path id="Path_10" data-name="Path 10" d="M974.791,469.71a16.876,16.876,0,0,0,9.6,15.231A5.165,5.165,0,0,0,985.8,481.4V453.884A16.882,16.882,0,0,0,974.791,469.71Z" transform="translate(-925.609 -435.227)" fill="#00d0ff"/>
            <path id="Path_11" data-name="Path 11" d="M857.915,438.056l-11.568,20.036a10.309,10.309,0,0,0,8.928,15.464h23.136a10.309,10.309,0,0,0,8.928-15.464l-11.568-20.036A10.309,10.309,0,0,0,857.915,438.056Z" transform="translate(-844.951 -422.192)" fill="#ffca2f"/>
            <path id="Path_12" data-name="Path 12" d="M1026.615,485.022a4.835,4.835,0,0,1-3.4-1.4.73.73,0,0,1,1.03-1.036,3.355,3.355,0,0,0,5.7-2.719.73.73,0,0,1,1.453-.148,4.819,4.819,0,0,1-4.784,5.306Z" transform="translate(-955.555 -450.867)"/>
            <ellipse id="Ellipse_2" data-name="Ellipse 2" cx="2.047" cy="2.047" rx="2.047" ry="2.047" transform="translate(71.02 22.364)"/>
            <ellipse id="Ellipse_3" data-name="Ellipse 3" cx="2.047" cy="2.047" rx="2.047" ry="2.047" transform="translate(64.067 25.468)"/>
            <ellipse id="Ellipse_4" data-name="Ellipse 4" cx="1.961" cy="1.961" rx="1.961" ry="1.961" transform="translate(17.203 21.531)"/>
            <ellipse id="Ellipse_5" data-name="Ellipse 5" cx="1.961" cy="1.961" rx="1.961" ry="1.961" transform="translate(11.648 20.669)"/>
            <path id="Path_13" data-name="Path 13" d="M879.043,484.172h0a6.87,6.87,0,0,1-1.288-.123,6.808,6.808,0,0,1-5.409-7.973.7.7,0,0,1,.819-.556l12.007,2.3a.7.7,0,0,1,.556.819A6.817,6.817,0,0,1,879.043,484.172Zm-5.411-7.136a5.414,5.414,0,0,0,4.385,5.639,5.406,5.406,0,0,0,6.159-3.619Z" transform="translate(-861.892 -448.66)"/>
            <path id="Path_14" data-name="Path 14" d="M947.886,450.83a8.024,8.024,0,0,0,8.024-8.023H939.862A8.024,8.024,0,0,0,947.886,450.83Z" transform="translate(-903.911 -428.346)"/>
            <ellipse id="Ellipse_6" data-name="Ellipse 6" cx="2.242" cy="2.242" rx="2.242" ry="2.242" transform="translate(45.291 6.356)"/>
            <ellipse id="Ellipse_7" data-name="Ellipse 7" cx="2.242" cy="2.242" rx="2.242" ry="2.242" transform="translate(37.673 6.356)"/>
            <path id="Path_15" data-name="Path 15" d="M932.868,461.509,921.3,441.473a10.312,10.312,0,0,0-2.693-3.071,16.26,16.26,0,0,0-.365,3.421v29.962a5.188,5.188,0,0,0,5.188,5.188h.51A10.309,10.309,0,0,0,932.868,461.509Z" transform="translate(-890.48 -425.61)" fill="#ff29e6"/>
          </g>
        </g>
      </g>
      <path id="Path_17" data-name="Path 17" d="M913.495,410.274H858.251V369.024a21.985,21.985,0,0,1,8.458-17.26l16.7-12.949a21.839,21.839,0,0,1,26.763,0l16.7,12.949a21.986,21.986,0,0,1,8.458,17.26v19.41A21.864,21.864,0,0,1,913.495,410.274Zm-53.161-2.083h53.161a19.779,19.779,0,0,0,19.756-19.757v-19.41a19.889,19.889,0,0,0-7.651-15.614l-16.7-12.949a19.756,19.756,0,0,0-24.21,0l-16.7,12.949a19.89,19.89,0,0,0-7.651,15.614Z" transform="translate(-858.251 -334.236)" fill="#0a405b"/>
    </g>
    <g id="Group_3302" data-name="Group 3302" transform="translate(189 -380.576)">
      <g id="Group_3299" data-name="Group 3299" transform="translate(217 581.071)">
        <path id="Path_6428" data-name="Path 6428" d="M226.255,618.967a10.121,10.121,0,0,1,.7-3.329,12.225,12.225,0,0,1,1.766-3.032,9.827,9.827,0,0,1,2.391-2.22,5.249,5.249,0,0,1,2.72-.828,8.1,8.1,0,0,1,1.062.094,3.188,3.188,0,0,1,1.345.516,4.125,4.125,0,0,1,1.125,1.25,5.043,5.043,0,0,1,.469,2.391v.422a5.6,5.6,0,0,0-.031.7,5.665,5.665,0,0,1-.063.735,3.688,3.688,0,0,0-.031.516,3.55,3.55,0,0,0-1.766-1.469,4.454,4.454,0,0,0-1.985-.2,5.289,5.289,0,0,0-1.907.672,7.71,7.71,0,0,0-1.579,1.188,25.741,25.741,0,0,1,2.594.8,19.945,19.945,0,0,1,2.594,1.251,8.283,8.283,0,0,1,2.017,1.735,3.175,3.175,0,0,1,.8,2.141,8.355,8.355,0,0,1-.766,3.423,10.235,10.235,0,0,1-2.235,3.142,12.9,12.9,0,0,1-3.486,2.3,11.048,11.048,0,0,1-4.548.906,10.736,10.736,0,0,1-4.611-.906,10.321,10.321,0,0,1-3.235-2.235,9.229,9.229,0,0,1-1.922-2.938,9.532,9.532,0,0,1-.672-3.017,10.227,10.227,0,0,1,.359-2.813,12.639,12.639,0,0,1,1.048-2.751,14.445,14.445,0,0,1,1.5-2.438,10.941,10.941,0,0,1,1.735-1.8l1.86,1.8-1,1.469a8.331,8.331,0,0,0-.672,1.375,9.685,9.685,0,0,0-.375,1.454,8.563,8.563,0,0,0-.125,1.625,4.63,4.63,0,0,0,.594,2.407,5.141,5.141,0,0,0,1.579,1.657,6.534,6.534,0,0,0,2.079,1,8.2,8.2,0,0,0,2.266.313,6.4,6.4,0,0,0,1.7-.219,9.846,9.846,0,0,0,1.626-.578,7.4,7.4,0,0,0,1.406-.93,3.837,3.837,0,0,0,.969-1.18,8.331,8.331,0,0,0-.9-.571,9.673,9.673,0,0,0-1.086-.492l-.977-.383q-.336-.133-1.251-.437t-1.227-.43a3.935,3.935,0,0,1-1.4-.782A2.007,2.007,0,0,1,226.255,618.967Z" transform="translate(-217 -602.931)" fill="#0a405b"/>
        <path id="Path_6429" data-name="Path 6429" d="M325.854,627.7a16.713,16.713,0,0,1-.235,2.813,15.041,15.041,0,0,1-.829,3.11,19.468,19.468,0,0,1-1.735,3.454,26.075,26.075,0,0,1-2.844,3.845l-4.705-3.97a17.045,17.045,0,0,0,2.689-2.3,14.537,14.537,0,0,0,1.766-2.47,12.7,12.7,0,0,0,1.079-2.5q.328-1.219.578-2.454a12.8,12.8,0,0,0-1.047-3.063,36.809,36.809,0,0,0-2.048-3.5l3.8-5.064Q325.806,622.561,325.854,627.7Z" transform="translate(-292.59 -607.571)" fill="#0a405b"/>
        <path id="Path_6430" data-name="Path 6430" d="M418.215,600.052V605.3H373.624v-19.85l5.1-3.173v17.772Z" transform="translate(-337.188 -581.999)" fill="#0a405b"/>
        <path id="Path_6431" data-name="Path 6431" d="M572.007,627.429l-1.532,5.252H549.437l-.031-5.252h14.379a11.233,11.233,0,0,1-.617-.969q-.446-.75-.875-1.344a7,7,0,0,0-.883-1.016,4.466,4.466,0,0,0-3.2-1.219,5.319,5.319,0,0,0-3.454,1.219l-1.7-1.656L555.2,620.4a15.219,15.219,0,0,1,1.719-1.375,6.34,6.34,0,0,1,1.47-.813,4.965,4.965,0,0,1,1.516-.25,5.829,5.829,0,0,1,2.751.641,9.673,9.673,0,0,1,2.141,1.688,20.937,20.937,0,0,1,1.766,2.313l1.563,2.532q1.375,2.3,2.72,2.3Z" transform="translate(-472.077 -609.376)" fill="#0a405b"/>
        <path id="Path_6432" data-name="Path 6432" d="M590.566,694.5l3.564,3.563-3.564,3.548-3.517-3.548Z" transform="translate(-500.963 -668.109)" fill="#0a405b"/>
        <path id="Path_6433" data-name="Path 6433" d="M690.929,602.578q-3.548,3.079-11.395,3.079l-3.548-5.22q.422,0,.766.031.7.063,1.094.063.375.031,1.078.031.36.031.75.031a22.309,22.309,0,0,0,3.423-.25q.156-3.611-2.829-10.05l-2.079-4.58,4.579-3.751q.516,1.219,1.188,3.079,1.47,4,2.173,6.564a22.615,22.615,0,0,1,.969,5.861q0,.5-.063,1.2a5.345,5.345,0,0,0,1.985-4.064V584.213l5.08-3.141v15.083q0,.8.031,1.141a4.073,4.073,0,0,0,.094.938,1.482,1.482,0,0,0,.328.641.675.675,0,0,0,.578.25h2.016v5.251h-3.783a2.379,2.379,0,0,1-1.516-.547A2.689,2.689,0,0,1,690.929,602.578Z" transform="translate(-569.211 -581.071)" fill="#0a405b"/>
        <path id="Path_6434" data-name="Path 6434" d="M758.829,615.467a.649.649,0,0,1-.187-.25,2.667,2.667,0,0,1-.156-.547l-.109-.672q-.063-.453-.062-.547a6.341,6.341,0,0,1,.9-3.212,6.251,6.251,0,0,1,2.493-2.415q-.188-.172-.578-.547a4.147,4.147,0,0,1-.5-.672,2.746,2.746,0,0,1-.39-.907,4.016,4.016,0,0,1-.157-1.141l2.3-2.188a1.782,1.782,0,0,0,.547,1.321,5.081,5.081,0,0,0,1.344.93,11.17,11.17,0,0,0,1.673.641l1.594.516,2.688.86a22.039,22.039,0,0,1,2.845,1.219,11.823,11.823,0,0,1,2.563,1.813,7.779,7.779,0,0,1,1.8,2.735,11.911,11.911,0,0,1,.734,3.892,11.078,11.078,0,0,1-.281,2.438q-.266,1.157-.672,2.376-.36.922-.875,1.985a15.889,15.889,0,0,1-.735,1.438q-.61-.641-1.282-1.438a5.332,5.332,0,0,0-1.25-1.126,5.62,5.62,0,0,0-1.844-.766,16.84,16.84,0,0,0-3.141-.484H755.469v-5.251Zm6.081-5.127a2.556,2.556,0,0,0-1.126.235,2.355,2.355,0,0,0-.859.641,2.681,2.681,0,0,0-.579.922,3.185,3.185,0,0,0-.187,1.094,2.564,2.564,0,0,0,.187,1.016,2.5,2.5,0,0,0,.422.735,1.236,1.236,0,0,0,.516.422,1.49,1.49,0,0,0,.5.188,1.758,1.758,0,0,0,1.548-.735,4.684,4.684,0,0,0,.8-2.5v-.406a2.037,2.037,0,0,0-.125-.7,2.269,2.269,0,0,0-.36-.641A.961.961,0,0,0,764.91,610.34Zm4.189,5.189a8.23,8.23,0,0,1,1.391.235,8.787,8.787,0,0,1,1.047.438,4.605,4.605,0,0,1,.86.578l.844.641a6.267,6.267,0,0,0,.062-1.954,5.265,5.265,0,0,0-.609-1.719,6.583,6.583,0,0,0-1.188-1.454,5.87,5.87,0,0,0-1.657-1.016,3.985,3.985,0,0,1,.125,1.985A4.779,4.779,0,0,1,769.1,615.53Z" transform="translate(-630.203 -597.414)" fill="#0a405b"/>
      </g>
      <g id="Group_3301" data-name="Group 3301" transform="translate(217.065 616.825)">
        <g id="Group_3300" data-name="Group 3300" transform="translate(0 0)">
          <path id="Path_6435" data-name="Path 6435" d="M236.547,739.357v21.529h-5.985v-8.642h-7.3v8.642h-5.985V739.357h5.985v8.092h7.3v-8.092Z" transform="translate(-217.278 -738.288)" fill="#0a405b"/>
          <path id="Path_6436" data-name="Path 6436" d="M311.571,761.464a7.316,7.316,0,0,1,2.626-3.054,6.721,6.721,0,0,1,3.711-1.069,6.267,6.267,0,0,1,3.054.7,5.087,5.087,0,0,1,1.985,1.893v-2.382h5.985v17.132h-5.985V772.3a5.06,5.06,0,0,1-2,1.894,6.285,6.285,0,0,1-3.038.7,6.717,6.717,0,0,1-3.711-1.069,7.291,7.291,0,0,1-2.626-3.069,11.714,11.714,0,0,1,0-9.3Zm10.474,2.046a3.1,3.1,0,0,0-4.443-.015,3.638,3.638,0,0,0-.886,2.611,3.7,3.7,0,0,0,.886,2.611,2.9,2.9,0,0,0,2.229.962,2.937,2.937,0,0,0,2.214-.947,3.656,3.656,0,0,0,.9-2.626A3.613,3.613,0,0,0,322.046,763.51Z" transform="translate(-288.897 -752.088)" fill="#0a405b"/>
          <path id="Path_6437" data-name="Path 6437" d="M410.057,734.762v22.6h-5.985v-22.6Z" transform="translate(-360.617 -734.762)" fill="#0a405b"/>
          <path id="Path_6438" data-name="Path 6438" d="M441.264,761.464a7.316,7.316,0,0,1,2.626-3.054,6.72,6.72,0,0,1,3.71-1.069,6.268,6.268,0,0,1,3.054.7,5.088,5.088,0,0,1,1.985,1.893v-2.382h5.986v17.132h-5.986V772.3a5.059,5.059,0,0,1-2,1.894,6.285,6.285,0,0,1-3.039.7,6.716,6.716,0,0,1-3.71-1.069,7.291,7.291,0,0,1-2.626-3.069,11.717,11.717,0,0,1,0-9.3Zm10.474,2.046a3.1,3.1,0,0,0-4.443-.015,3.638,3.638,0,0,0-.885,2.611,3.7,3.7,0,0,0,.885,2.611,2.9,2.9,0,0,0,2.229.962,2.937,2.937,0,0,0,2.214-.947,3.655,3.655,0,0,0,.9-2.626A3.612,3.612,0,0,0,451.738,763.51Z" transform="translate(-388.419 -752.088)" fill="#0a405b"/>
          <path id="Path_6439" data-name="Path 6439" d="M569.271,739.357v14.261a6.772,6.772,0,0,1-7.39,7.482,8.206,8.206,0,0,1-5.848-2.046,7.684,7.684,0,0,1-2.183-5.894h5.924q.03,2.535,1.863,2.535,1.649,0,1.649-2.077V739.357Z" transform="translate(-475.551 -738.288)" fill="#0a405b"/>
          <path id="Path_6440" data-name="Path 6440" d="M632.26,761.464a7.317,7.317,0,0,1,2.626-3.054,6.72,6.72,0,0,1,3.71-1.069,6.268,6.268,0,0,1,3.054.7,5.092,5.092,0,0,1,1.985,1.893v-2.382h5.985v17.132h-5.985V772.3a5.062,5.062,0,0,1-2,1.894,6.284,6.284,0,0,1-3.038.7,6.716,6.716,0,0,1-3.71-1.069,7.292,7.292,0,0,1-2.626-3.069,11.716,11.716,0,0,1,0-9.3Zm10.474,2.046a3.1,3.1,0,0,0-4.443-.015,3.638,3.638,0,0,0-.886,2.611,3.7,3.7,0,0,0,.886,2.611,2.9,2.9,0,0,0,2.229.962,2.937,2.937,0,0,0,2.214-.947,3.656,3.656,0,0,0,.9-2.626A3.613,3.613,0,0,0,642.734,763.51Z" transform="translate(-534.983 -752.088)" fill="#0a405b"/>
          <path id="Path_6441" data-name="Path 6441" d="M733.188,758.458a5.926,5.926,0,0,1,3.084-.855v6.382h-1.68a4.576,4.576,0,0,0-2.9.763,3.239,3.239,0,0,0-.947,2.657v7.482H724.76V757.756h5.985v3.023A7.786,7.786,0,0,1,733.188,758.458Z" transform="translate(-606.703 -752.289)" fill="#0a405b"/>
          <path id="Path_6442" data-name="Path 6442" d="M795.736,758.26l-10.871,25.285h-6.5l4.092-8.886-7.023-16.4h6.657l3.6,9.711,3.481-9.711Z" transform="translate(-645.584 -752.794)" fill="#0a405b"/>
        </g>
      </g>
    </g>
  </g>
</svg>
